<?xml version="1.0" encoding="utf-8"?>
<!-- Generator: Adobe Illustrator 21.1.0, SVG Export Plug-In . SVG Version: 6.00 Build 0)  -->
<svg version="1.1" id="Layer_1" xmlns="http://www.w3.org/2000/svg" xmlns:xlink="http://www.w3.org/1999/xlink" x="0px" y="0px"
	 viewBox="0 0 713.5 681.4" style="enable-background:new 0 0 713.5 681.4;" xml:space="preserve">
<style type="text/css">
	.st0{fill:#FFFFFF;}
</style>
<g>
	<title>Layer 1</title>
	<g id="layer3">
	</g>
	<g id="layer1">
		<g id="g22249">
			<path id="path18706" class="st0" d="M195,65.9c-82.8,55.8-137.8,153-137.8,263.6c0,172.9,134.2,313.2,299.5,313.2
				s299.5-140.3,299.5-313.2c0-114.1-58.5-214.1-145.8-268.8c-20-9.6-109.8-64.7,0,9.9c27.9,18.1,52.9,40.9,73.4,67.7
				c50.7,64.7,73,152.3,61.5,235.1c-11.2,85.7-60.1,164.3-129,211.3c-67.7,47.3-154.9,61.5-233.5,39.8
				c-83.9-22.1-155.9-86.6-191.6-168.9c-38.3-86-33.7-191.2,10.4-273.8c22.2-42.6,54.8-78.8,93.4-105.6C304-5.5,222.9,46.9,195,65.9
				L195,65.9z"/>
			<path id="path17799" class="st0" d="M228.4,680.2c0-1.2,58.1-30.2,68.6-34.2c14.4-5.6,38.1-9.6,46.5-7.9l6.1,1.3l-6.8,8.2
				c-3.7,4.5-10,10.4-13.8,13c-9.3,6.5-32.1,14.3-49.6,16.9C267,679.3,228.4,681.4,228.4,680.2z M459.9,679.6
				c-26.1-1.6-28.1-1.9-52.4-9.6c-14.6-4.6-18.3-6.8-29.5-17.6l-12.9-12.3l5.7-1.6c14.6-4.1,61.5,9.4,82,23.6
				c3.9,2.7,9.3,5.6,12.1,6.4c6.2,1.9,23.8,10.9,23.8,12.2c0,0.5-1.1,0.8-2.5,0.7C484.9,681.2,473,680.4,459.9,679.6z M175.7,644.7
				c-10.9-3.4-23.8-7.3-28.5-8.6l-8.6-2.5l14.6-2.5c8-1.4,23.3-4.3,33.9-6.5c29.5-6,59.1-4.3,78.3,4.6l5.1,2.4l-6.4,5.7
				C247.3,652.3,210.1,655.4,175.7,644.7z M471,647c-14.2-5.2-27.2-14.4-23.5-16.5c7.8-4.5,33.7-9.9,47-9.9
				c12.3,0,44.5,5.1,75.3,11.8c5.8,1.3,3.4,2.4-22.1,10.1c-24.9,7.5-31,8.6-47.3,8.6C487.1,651,478.7,649.9,471,647z M306.6,630.6
				c-12.5-3.7-38.6-34-43.4-50.3l-1.4-4.7l8.6,4.5c4.7,2.5,14.8,6.6,22.3,9.3c25.1,8.8,36.7,18.2,43.9,36l3.1,7.5l-13.4-0.2
				C318.9,632.5,310,631.6,306.6,630.6z M377.4,629.2c0-5.5,14.2-23.6,23.4-29.9c4.1-2.8,13.2-7,20.2-9.3s17.1-6.5,22.5-9.1l9.8-4.8
				l-1.3,5.2c-3.1,12.5-22.4,37.8-34.5,45c-6.9,4.2-12.3,5.5-24.5,6.3C378.4,633.3,377.4,633.1,377.4,629.2z M252.2,619.2
				c-21.5-7.8-36.7-25.6-44.8-52.4c-2.7-9.1-5.5-20.4-6.2-25.2l-1.2-8.8l26.8,27.1c27.6,28,33.3,36.3,35,52
				C262.7,621,260.9,622.4,252.2,619.2z M453.5,612.5c2.3-17.9,12.5-31.7,50.3-67.9l12.1-11.6l-1.6,10.5
				c-5.2,33.5-22.2,62.7-42.3,72.2c-5.6,2.7-12.3,4.9-14.9,4.9C452.8,620.6,452.5,620,453.5,612.5z M141.9,600.5
				c-22.9-7.3-28.8-10.3-50.7-25.8c-12.1-8.6-21.8-15.8-21.4-16.1c3-2.2,74.7,5.8,80.9,9c1.7,0.9,8.9,4.5,16,8.1
				c7.1,3.5,16.4,9.6,20.7,13.4l7.8,7l-7.1,3.1C176.2,604.3,155.6,604.8,141.9,600.5z M536.7,602.1c-4.8-1-9.9-2.8-11.5-4.1
				c-3.7-3.1-0.2-7.2,14.6-17.3c16.3-11.1,34.7-16.8,61.6-19.1c34.6-3,44.1-3.3,43-1.5c-2.3,3.8-43.2,30.4-52.8,34.3
				C569.3,603.5,554.2,605.7,536.7,602.1z M179.2,575.2c-12.5-9.6-23.7-26.1-26.3-38.6c-1.3-6-2-22.3-1.6-37.1l0.6-26.5l7.3,14.3
				c4,7.8,9.6,17.8,12.5,22c13.9,20.8,21.7,49,17.8,64.9l-1.8,7.5L179.2,575.2z M526.9,561.3c1.1-22,4.4-32.8,15-47.9
				c2.5-3.5,8.4-14,13.2-23.2l8.7-16.7l1.4,17.1c1.7,20.6-1.1,47-6.1,57.9c-3.9,8.5-20.8,27.1-28.5,31.3l-4.7,2.6L526.9,561.3z
				 M103.9,536.2c-6.7-1.5-15.2-4.4-18.9-6.3c-12-6.4-32.4-24.5-41.4-36.7c-4.8-6.6-11.5-15-14.8-18.6c-6.7-7.5-6.3-7.8,4.2-3.7
				c4.1,1.6,12.5,3.9,18.7,5.2c12.8,2.6,35,13,47.6,22.3c9.5,7.1,24.3,24,28.9,33c2.7,5.4,2.7,5.8-0.6,5.9c-1.9,0-5.3,0.4-7.5,0.9
				C117.9,538.5,110.6,537.7,103.9,536.2z M591.5,537.7c-3-0.5-5.5-1.3-5.5-1.9c0-4,12.2-20.7,21.6-29.7
				c13.1-12.3,39.9-26.8,56-30.2c6-1.3,14.8-3.6,19.5-5.2c10.3-3.5,12.6-2.5,5.3,2.4c-2.9,1.9-8.3,8.2-12.1,13.9
				c-11.6,17.7-18,23.7-42.4,40.5C624.9,533.8,601.8,539.4,591.5,537.7z M120.5,510.7c-5.2-6.2-7.6-11.9-10.1-23.5
				c-1.8-8.4-3.3-18.9-3.3-23.2c0-11.3,7.3-45.8,11.7-55.8c3.8-8.4,3.8-8.4,4-2.4c0.1,3.4,3.3,18.9,7.1,34.6
				c4.3,17.9,6.9,33.5,6.9,41.9c0,13.2-4.4,33.3-7.8,35.4C128.2,518.3,124.3,515.2,120.5,510.7z M584.4,513.1
				c-8-20.8-7.7-34.5,1.6-72.7c3.3-13.4,6-26.9,6-29.9c0.1-17.8,8.8,2.3,14,32.2c5,28.7-1.5,62.2-13.7,71.5l-5.8,4.4L584.4,513.1z
				 M67.7,455.6c-14.2-5.2-28.5-16.7-37-29.8c-3.8-5.9-12.3-21.8-18.8-35.3L0,366l9.4,5.5c5.1,3,14.6,9.2,21,13.8
				c6.4,4.5,14.8,10.2,18.6,12.6c14.4,8.9,30.7,35,33.6,53.8C84,461.1,83.4,461.3,67.7,455.6z M631.8,456.6c0-1.7,2.8-10.6,6.2-19.7
				c7-18.7,16.3-30.4,33.3-42.1c15.5-10.7,40.8-26.7,42.1-26.7c2.1,0-23.9,51.9-30.8,61.4c-8.1,11.2-21.4,21.1-35.6,26.4
				C634.6,460.6,631.8,460.7,631.8,456.6z M81.5,430.3c-5.3-14.6-5.4-33.2-0.2-50.5c4.3-14.1,29.8-56.5,29.7-49.3
				c-0.3,23.7-4.3,71.2-6.6,78.6c-3.9,12.6-9.9,24.4-14.8,28.9C85.7,441.7,85.6,441.5,81.5,430.3z M625.3,437.9
				c-4.8-5.5-12.6-22.8-15.2-33.8c-2-8.6-6.6-74.8-5.3-76.2c1.5-1.6,25.4,39,29.1,49.4c6.1,17.2,6.1,41.2-0.1,54.5
				c-2.5,5.3-4.7,9.7-5,9.7C628.6,441.4,627,439.8,625.3,437.9z M45.2,364.9c-18.2-12.3-28.4-33-34.3-69.2
				c-1.6-10.2-3.6-20.3-4.4-22.4c-1.1-3,0.2-2.4,5.7,2.2c3.9,3.4,9.4,7.7,12,9.6c8.4,5.9,29.7,38.4,33.6,51.2c4.4,14.4,5,36,0.9,36
				C57.3,372.2,51.1,368.9,45.2,364.9z M654.3,357.1c1.5-17.8,6.1-31.3,15.4-45c7-10.3,37-41.6,39.8-41.6c0.9,0,0.7,2.4-0.3,5.3
				c-1.1,2.9-3.2,13.2-4.8,22.9c-5.4,34.1-16.8,55.9-34.8,67C653.5,375.4,652.8,375,654.3,357.1z M66.4,347.1
				c-0.9-7.4-0.3-15.1,1.9-23.9c5.5-22.2,11.6-32.3,30.9-51.2c9.9-9.7,17.9-17.1,17.9-16.5s-1.4,5.8-3.2,11.6
				c-9.7,32.2-15.7,49.8-19.3,56.2c-5.5,9.9-23.7,34.7-25.5,34.7C68.4,358,67.1,353.1,66.4,347.1z M638.2,348.1
				c-16.1-19.6-24.8-39.5-39.2-89.9l-1.4-5.1l4.9,5.1c2.7,2.8,11.7,11.8,19.9,20c12.7,12.7,15.7,17.1,20.3,29.5
				c5.7,15.6,8.4,38,5.5,45.8C646.6,358.1,646.2,357.9,638.2,348.1z M52.3,280.8c-15.9-9.9-22.2-31.9-19.7-68.3
				c0.9-12.4,1.6-25.5,1.6-29c0-6.3,0.2-6.1,6.8,5.1c3.7,6.3,8,13,9.5,14.7c4.1,4.6,11.9,23.9,14.8,36.3c2.5,10.9,1.9,22.3-2,37.3
				C61,285.8,60.6,286,52.3,280.8z M653.2,280.1c-1.6-2.9-2.5-12.4-2.6-26c0-20,0.4-22.2,6.4-34.6c3.5-7.3,10.3-19.4,15.1-27
				l8.7-13.7l1.7,19.8c3,34.9,0.9,54.3-7.7,70.3c-3.5,6.6-13.9,15.7-17.9,15.7C656.3,284.7,654.6,282.6,653.2,280.1z M71.4,267.2
				c0-17.2,9.9-36.1,26.9-51.5c7.2-6.5,42-26.8,45.9-26.8c0.6,0-1.8,3.4-5.2,7.6c-3.4,4.2-11.6,15.9-18.2,26
				c-13.2,20.2-26.2,34.9-38.9,44C71.8,273.8,71.4,273.8,71.4,267.2z M634.7,267.1c-11.8-8-28.6-25.2-32.9-33.7
				c-5.9-11.6-15.9-26.4-23.1-34.2c-3.6-3.9-6.6-7.8-6.6-8.8c0-0.9,9,3.1,20,9c15.7,8.4,22.8,13.7,32.7,24.5
				c12.7,13.8,15.5,19.8,19.8,41.9C646.3,273.9,645,274,634.7,267.1z M74,198.8c-12.9-22.3-12.4-36.9,2.8-82.9l5.7-17.1l6.7,20.9
				c5.3,16.5,6.7,24.2,6.7,36.5c0,17.1-5.4,34.9-13.4,44.5l-4.4,5.3L74,198.8z M634.4,202.9c-1.2-1.5-4.7-7.8-7.9-14
				c-5.3-10.4-5.7-12.8-5.6-33.6c0.1-20,0.8-24.1,6.3-38.7c3.7-9.8,6.6-15.1,7.3-13.2c8.7,23,17,53.9,17.1,63.5
				c0,8.6-6.4,27.8-11.6,34.3C637.2,204.9,636.2,205.2,634.4,202.9z M94.4,190.5c6.8-22.1,35.1-43.2,68.7-51.4
				c19.8-4.8,21.1-4,9.4,5c-5.8,4.5-13.7,11.1-17.6,14.9c-16.6,15.9-49.1,36-58.4,36C93.7,195.1,93.3,194.1,94.4,190.5z
				 M613.1,193.6c-7.1-1.9-28-14.7-38.9-23.9c-6-5.1-17.4-14.4-25.2-20.9s-14-12-13.6-12.4c1.9-1.9,26.9,4.7,41.5,10.9
				c18.6,8,33.9,21.1,40.8,34.9C623.9,195,623.4,196.3,613.1,193.6z M111.5,127.4c-3-14.2-1.2-31.3,4.4-43
				c2.8-5.8,10.8-17.6,17.9-26.3l12.8-15.8l1.4,13.3c3,29.1-3.9,53.4-20.1,69.8c-5.8,5.9-11.4,10.7-12.5,10.7
				C114.3,136,112.5,132.2,111.5,127.4z M589.5,127.1c-5.6-5.3-11.7-13.8-14.9-20.8c-4.8-10.7-5.5-14.7-6.1-38.4l-0.7-26.5l7.6,9
				c22.1,26,28.1,37.3,29.8,55.6c1.1,12.2-1.8,30.1-4.8,30.1C599.6,136,594.7,132,589.5,127.1z M141.2,119.6
				c17-16.5,34-22.3,64.9-22.2c21.9,0,25.7,2.2,12.9,7.1c-5.3,2-16.7,7.3-25.4,11.7c-17.4,8.8-35.9,13.7-52.4,13.7l-10.6,0
				L141.2,119.6z M551.3,127c-6.6-1.4-20.4-6.6-30.8-11.7c-10.4-5.1-22.2-10.5-26.3-12c-10.7-3.9-5.7-5.9,15-6
				c31.8-0.1,51.9,7.3,68.8,25.3l6.8,7.3l-10.8-0.2C568.1,129.6,557.9,128.4,551.3,127z M196.1,85.2c-4.1-0.8-8-2.1-8.7-2.8
				c-2.3-2.3,3.2-7,13.8-11.7c15.9-7.2,40.6-6.7,63.5,1.2c9.6,3.3,17.4,6.7,17.4,7.6c0,0.9-3.4,1.6-7.5,1.6c-4.1,0-17.3,1.4-29.3,3
				C221.9,87.3,208.1,87.6,196.1,85.2z M477.8,85.2c-6.6-0.9-19.3-2.4-28.4-3.2c-9.1-0.8-15.8-2.2-14.9-3.1
				c3.4-3.4,32.1-11.9,44.4-13.2c14.9-1.6,34.5,2.7,43.8,9.4c6.6,4.8,7.2,7,2.3,8.9C519.3,86.3,490.6,87,477.8,85.2z M167.9,77.8
				c-4.4-17.8,8.7-39.8,33.8-57.2c6.5-4.5,13.7-9.2,16-10.4l4.3-2.3L218.5,22c-5,19.9-10.6,30.7-22.1,42.7
				c-8.2,8.5-22.4,18.5-26.3,18.5C169.6,83.1,168.6,80.7,167.9,77.8z M536.2,79c-9.3-5.1-27.3-25.2-31.9-35.9
				c-3.8-8.8-10.4-33.3-9.3-34.4c0.4-0.4,7.1,3.7,15.1,8.9c16,10.6,33.3,30,36.5,40.9c2.4,8.3,1.7,22.8-1.2,23.7
				C544.3,82.7,540.1,81.2,536.2,79z M231.4,41.9c4.1-19.7,14.4-27.8,45.6-36.1c7.7-2,15.6-4.4,17.6-5.2c7-2.9-2.1,10.8-17.6,26.7
				c-14.9,15.2-26.5,21.2-41.3,21.2C230.4,48.5,230.1,48.2,231.4,41.9z M463,45.1c-4.8-1.7-12.3-6-16.7-9.6
				c-7.4-6-29.7-34-28.3-35.5c0.4-0.4,5,0.7,10.3,2.4c5.3,1.7,15.3,4.7,22.3,6.7c19.4,5.6,34.1,20.8,34.1,35.2c0,3.3-1.3,4.1-6.5,4
				C474.7,48.3,467.9,46.9,463,45.1z"/>
		</g>
	</g>
</g>
</svg>
