<?xml version="1.0" encoding="utf-8"?>
<!-- Generator: Adobe Illustrator 21.1.0, SVG Export Plug-In . SVG Version: 6.00 Build 0)  -->
<svg version="1.1" id="Layer_1" xmlns="http://www.w3.org/2000/svg" xmlns:xlink="http://www.w3.org/1999/xlink" x="0px" y="0px"
	 viewBox="0 0 921.6 666.2" style="enable-background:new 0 0 921.6 666.2;" xml:space="preserve">
<style type="text/css">
	.st0{fill:none;}
	.st1{font-family:'HelveticaNeue-Bold';}
	.st2{font-size:92px;}
</style>
<g>
	<path d="M251.2,0.4c-1.6,8.8-5.2,16.9-9.7,24.6c-8.5,14.6-20.1,25.7-36.3,31.2c-4.6,1.6-9.6,2.1-14.5,2.8c-2,0.3-3.7,0.8-5.4,2.1
		c-14.3,11.8-26.5,25.5-38,39.8c-0.1,0.2-0.2,0.4-0.6,1.1c2.1-0.3,3.8-0.4,5.6-0.7c0.4-0.1,0.9-0.7,1-1.1
		c5.2-13.7,16.3-19.5,29.7-21.9c9-1.6,17.8-0.3,26.7,1.1c6.5,1,12.9,2.2,19.6,3.3c-0.4,0.6-0.6,1.2-1,1.6
		c-11.2,14.3-25.3,23.9-43.7,25.9c-10.5,1.1-20.6-0.2-29.8-5.9c-0.8-0.5-1.9-0.5-2.9-0.5c-2.1,0.2-4.3,0.5-6.4,0.9
		c-0.8,0.2-1.7,0.7-2.2,1.4c-12.9,16.7-24,34.5-33.7,53.2c-0.5,1.1-1.1,2.1-1.9,3.8c2.4-0.8,4.3-1.3,6-2c0.5-0.2,0.9-1.1,1-1.7
		c1.8-11.9,8.9-20,19.3-25.3c8.8-4.5,18.5-6,28.3-6.8c8.4-0.6,16.8-1,25.1-1.5c0.6,0,1.1,0,1.9,0c-0.2,0.6-0.3,1.2-0.5,1.6
		c-9,14.9-20.5,27.2-36.9,34c-11.5,4.8-23.2,6.4-35.2,1.9c-0.6-0.2-1.4-0.2-2,0c-2.6,0.9-5.3,1.8-7.8,2.8c-0.5,0.2-1,1-1.2,1.6
		c-11.7,23.9-20.8,48.8-27.5,74.5c0,0.1,0,0.3,0,0.9c1.8-1.1,3.4-2,4.8-3.1c0.5-0.3,0.7-1.2,0.7-1.8c-0.8-16.5,6.6-28.7,19.7-38
		c8.7-6.2,18.5-10.4,28.4-14.2c7-2.7,14-5.4,21.6-8.3c-1.8,5-3.3,9.7-5.2,14.2c-7.2,17.4-18,31.7-34.2,41.8
		c-8.4,5.2-17.5,8-27.5,7.6c-0.8,0-1.8,0.5-2.5,1c-2.1,1.5-4.2,3.1-6.3,4.8c-0.5,0.4-1,1.2-1.1,1.9c-2.7,14.4-6,28.8-7.9,43.4
		c-1.8,13.9-2.3,28-3.3,42c0,0.2,0.1,0.4,0.3,1.2c1.6-1.8,3-3.4,4.2-5.1c0.3-0.4,0.2-1.2,0.1-1.8c-3-14.1,0.2-27.2,7.3-39.3
		c6.6-11.1,16-19.7,26-27.6c7.2-5.7,14.4-11.3,22-17.3c-0.2,3.7-0.3,7.1-0.7,10.4c-2,18-7.2,34.8-17.8,49.8
		c-7.4,10.5-16,19.7-28.3,24.3c-4.4,1.6-7.5,4-10.2,7.8c-2.2,3.1-3,5.9-3,9.5c0.2,26.3,3.1,52.3,8.6,78c0.1,0.6,0.3,1.2,0.7,2.2
		c1.1-2.6,2.1-4.8,2.9-7c0.2-0.5,0-1.3-0.3-1.7c-3.5-4.5-4.4-9.9-4.8-15.3c-0.9-15.3,4.3-28.9,12.5-41.3
		c7.7-11.6,16.3-22.5,24.5-33.7c1.9-2.6,3.8-5.1,6.3-7.6c0.5,4.8,1.1,9.6,1.4,14.4c1.6,25.3-4.6,48.5-19.2,69.3
		c-4.2,5.9-9.6,10.7-15.5,14.9c-1,0.7-1.8,1.9-2.4,3.1c-1.4,2.8-2.7,5.8-4,8.7c-0.3,0.7-0.4,1.7-0.2,2.5
		c6.9,28.2,16.8,55.3,30.5,80.9c0.1,0.2,0.3,0.4,0.8,1c0.3-2.1,0.4-3.8,0.8-5.4c0.5-2.1-1.1-2.9-2.1-4.1c-4.9-5.4-6.7-12.2-8.4-19.1
		c-3.2-12.9-1.2-25.6,2.8-37.8c4.7-14.4,10.4-28.5,15.7-42.7c0.6-1.7,1.3-3.4,2.1-5.7c0.9,1.8,1.6,3.2,2.2,4.6
		c11.5,27.2,13,54.8,2.6,82.7c-2.4,6.3-6.5,11.9-9.7,17.8c-0.9,1.6-1.5,3.4-2,5.2c-0.4,1.5-0.2,3.3-0.8,4.7
		c-1.1,2.9-0.2,5.3,1.2,7.8c12.2,20.9,26.4,40.2,43.4,57.5c0.6,0.6,1,1.2,1.6,1.8c0.2-0.1,0.5-0.2,0.7-0.2c-0.2-2.2-0.3-4.4-0.6-6.7
		c0-0.3-0.5-0.6-0.8-0.8c-6.4-2.9-10.5-8.2-14.1-13.9c-5.6-8.9-7.4-18.7-7.9-29c-0.5-12.5,0.9-24.9,2.4-37.3
		c0.9-7.5,1.8-15.1,2.7-22.6c0-0.4,0.1-0.7,0.3-1.7c1.5,1.7,2.8,3,3.9,4.3c16.4,20.1,23.7,43.3,23.2,69.2c-0.2,9.9-2.4,19.5-6,28.7
		c-0.7,1.8-0.2,4.1-0.5,6.1c-0.8,5.3,1.5,8.8,5.4,12.2c17.6,15.5,36.6,28.7,57.9,38.5c0.8,0.4,1.6,0.7,2.9,1.3
		c-0.6-2.1-0.9-3.7-1.5-5.3c-0.1-0.4-0.8-0.8-1.2-0.8c-5.3,0.2-9.3-2.5-13.3-5.4c-9.6-7-15.4-16.6-18.9-27.9
		c-3.8-12.2-5.7-24.7-7.6-37.3c-0.9-5.8-1.9-11.6-2.8-17.8c1.1,0.5,2,0.8,2.8,1.3c26,14.4,40.3,36.6,43.6,66
		c0.6,5.7-0.5,11.6-0.2,17.4c0.2,3.6,1.4,7.2,2.2,10.7c0.1,0.4,0.9,0.8,1.5,1c16.3,6.8,33,12.1,50.4,14.9c4,0.7,5.4,2.7,4.9,7.4
		c-5.2-0.9-10.4-1.8-15.5-2.8c-11.8-2.4-23.2-5.8-34.4-10.2c-2.2-0.9-4,0.2-6,0.3c-4,0.2-6.4,1.9-8.5,5.5
		c-5.1,8.9-13.5,14-23.2,16.6c-23.1,6-45.3,3.1-66.7-7.2c-3-1.5-5.6-3.9-8.5-6c8.4-7.4,17.1-13.3,26.9-17.5
		c11.7-5.1,23.8-7.8,36.6-7.1c10.6,0.6,20.3,4.2,29.5,9.1c1.6,0.8,3.2,1.6,4.6,2.6c2.1,1.4,4.2,1.8,6.9,0.6
		c-0.9-0.4-1.6-0.8-2.3-1.1c-21.2-9.5-40.5-21.9-57.8-37.3c-3.7-3.3-7.9-2.7-12-3.6c-0.4-0.1-1,0.4-1.3,0.8
		c-8.1,9.1-18.6,11.8-30.2,10.9c-15.8-1.2-30.1-6.7-43.5-15.1c-7.2-4.5-14.1-9.4-19.3-16.3c-1.1-1.4-1.9-2.9-3-4.5
		c0.6-0.4,1-0.8,1.5-1c20.2-8.6,40.8-10.7,62-3.8c11.8,3.9,21.2,11.4,29.5,20.3c0.8,0.9,1.7,1.7,2.4,2.7c1.4,2,3.2,2.7,5.5,2.5
		c0.3-0.3,0.5-0.5,0.8-0.8c-0.9-0.5-1.9-0.9-2.7-1.6c-17.4-16.9-32.2-35.9-45-56.6c-1.2-1.9-3.7-2.9-5.5-4.3c-2.8-2.3-5.2-2.6-8.9-1
		c-9.5,4.2-19.3,2.5-28.7-1c-8.4-3.1-15.3-8.6-21.7-14.7c-10.5-10.1-19.7-21.2-25.5-34.8c-1.3-3.2-2.1-6.6-3.2-10.1
		c17-1.2,32.3,2.1,46.5,10.6c15.4,9.2,26.2,22.4,34.5,38c0.9,1.6,1.8,3.2,2.5,4.9c0.9,2.3,2.6,3.5,5.2,4.4c-1.9-3.5-3.7-6.7-5.4-9.9
		c-11.9-22.5-21.4-46-28.6-70.5c-0.2-0.8-0.8-1.5-1.3-2.2c-1.3-1.9-2.8-3.7-4-5.7c-1.1-1.9-2.3-2.6-4.8-2.2
		c-7.9,1.2-15-1.4-21.5-5.8c-8.5-5.8-14.9-13.6-20.3-22.1C12.2,393,4.9,377.9,1.5,361.3c-0.7-3.3-0.7-6.8-1.1-10.8
		c3.2,1.1,6,1.8,8.6,3C36.6,366.2,55.1,387,64,416.3c1.4,4.6,2.2,9.3,3.4,14c0.4,1.7,1.3,3.3,2,4.9c0.3-0.1,0.5-0.2,0.8-0.3
		c-0.5-2.3-1-4.7-1.5-7c-4.7-20.8-7-41.9-7.7-63.2c-0.1-2.8,0.1-5.6-0.4-8.4c-0.4-2.2-1.7-4.2-2.4-6.4c-1.1-3.5-2.9-5.3-6.9-6.2
		c-8.2-1.7-13.9-7.5-18.6-14.2c-6.9-9.7-10.8-20.8-13.9-32.1c-3.9-14.1-6.3-28.4-6-43.1c0.1-3.9,0.6-7.8,0.9-12.1
		c1.1,0.6,1.7,0.9,2.2,1.3c25.3,19.1,39.8,44.3,42.3,76.1c0.6,7.1,0,14.2,0.2,21.3c0.1,2.1,0.9,4.1,1.3,6.2c0.3-0.1,0.6-0.1,0.9-0.2
		c0.2-5.4,0.3-10.8,0.5-16.1c0.8-19.3,2.3-38.6,5.6-57.7c0.3-1.5,0.6-3-0.6-4.4c-0.5-0.6-0.5-1.8-0.6-2.8c-0.5-4.8-2.4-8.1-6.9-10.8
		c-8.9-5.4-12.9-14.6-15.2-24.4C40,216,39.6,201,40.3,186.1c0.6-11.2,2.1-22.3,5.9-32.9c0.3-0.8,0.6-1.6,1-2.4
		c0.1-0.2,0.2-0.4,0.5-0.9c1,1.2,1.9,2.2,2.8,3.3c17,20.5,24.1,44.1,22.4,70.6c-0.7,10.5-2.8,20.7-5.3,30.9c-0.6,2.5,0,5.2,0.1,7.9
		c0.3,0,0.6,0,0.9,0.1c0.5-2.4,1.1-4.8,1.6-7.2c4.5-21,11-41.3,18.9-61.3c0.9-2.2,0.5-5,0.8-7.4c0.5-4.2-0.3-7.4-3.7-10.7
		c-7.2-7.1-9.6-16.6-10.2-26.5c-1-16.6,2.1-32.6,6.5-48.5C85,91.9,88.2,83.2,93,75.1c0.9-1.6,2.1-3.1,3.3-4.9
		c5.5,10.1,9.2,20.3,10.8,31.2c3.4,22.5,1.4,44.5-8,65.5c-1.3,2.8-2.5,5.7-4.2,8.3c-1.8,2.8-1.6,5.7-1.4,8.8
		c1.7-3.7,3.5-7.4,5.3-11.1c9.1-18.9,19.9-36.8,32-54c1-1.4,1.3-3.3,1.9-4.9c0.2-0.7,0.2-1.6,0.3-2.4c0.9-3.8,0.7-6.9-2.2-10.4
		c-4.9-6-5.7-13.6-5.7-21.1c0-14.4,4-27.8,10.4-40.5c5.6-11.1,12.3-21.5,21.3-30.2c1.4-1.4,3-2.7,4.5-4c0.3-0.3,0.6-0.5,1.4-1
		c0.6,3.2,1.2,6.2,1.5,9.1c2,21.5-0.3,42.4-8.4,62.6c-3.9,9.7-9.5,18.3-16.6,25.9c-2.9,3.1-3.9,6.4-3.9,10.7
		c0.6-0.7,1.1-1.2,1.5-1.7c12.6-16.6,26.4-32.1,41.5-46.5c2.3-2.1,4.7-4.1,7-6.2c0.5-0.5,1.1-1.3,1-1.9c-1.1-8.9,1.8-16.6,6.9-23.5
		c7.4-10,17.3-16.7,28.7-21.3C230.4,8,239,5,247.6,1.8c0.9-0.3,1.8-1,2.6-1.4C250.6,0.4,250.9,0.4,251.2,0.4z"/>
	<path d="M922.3,358c-1.6,5.9-2.8,12-4.9,17.7c-6.2,16.5-14.1,32-26.2,45.1c-6.4,6.9-13.7,12.5-23.3,14.2c-2.8,0.5-5.8,0.4-8.6,0
		c-1.8-0.2-2.6,0.3-3.7,1.6c-4.2,5.2-6.6,11.3-8.6,17.6c-7.6,24.3-17.7,47.6-30.3,69.7c-0.2,0.4-0.4,0.8-0.8,1.6
		c2.5-1,4.1-2.1,5.1-4.3c6.7-13.7,14.9-26.3,27-36c16.3-13.2,34.9-19.4,56.4-17.6c-0.7,2.6-1.2,5.3-2.1,7.8
		c-3.8,10.5-10.2,19.3-17.4,27.7c-6.7,7.7-13.9,14.9-22.7,20.1c-10.4,6.2-21.6,9.1-33.7,6.2c-1.8-0.5-3.7-1.2-5.3-2.1
		c-1.4-0.8-2.3-0.8-3.6,0.1c-2.3,1.6-4.7,2.9-7.1,4.4c-0.4,0.3-0.8,0.8-1.1,1.2c-13.1,21.3-28.3,40.9-46.3,58.2
		c-0.3,0.3-0.6,0.7-1.1,1.2c2.4,0.1,4.1-0.4,5.6-2.2c8.4-9.7,17.9-18.1,30.2-22.6c20-7.3,39.8-6.1,59.5,1.3c1.6,0.6,3.1,1.3,4.7,1.9
		c0.3,0.1,0.5,0.3,1.3,0.8c-1.6,2.3-3.1,4.7-4.9,6.7c-6.8,7.9-15.6,13.2-24.6,18.1c-12.2,6.7-25.3,10.8-39.3,11.2
		c-10.6,0.3-20-2.7-27.3-10.9c-0.5-0.5-1.5-0.9-2.2-0.8c-2.5,0.2-4.9,0.5-7.4,1c-0.6,0.1-1.3,0.5-1.8,1
		c-18.3,16.2-38.5,29.5-61,39.4c-0.3,0.1-0.5,0.3-0.8,0.5c3.1,1.3,3.4,1.3,6.1-0.2c8.4-4.9,17.1-9,26.7-10.9c14.5-2.8,28.5-0.4,42,5
		c10.7,4.3,20.2,10.5,29.4,18.6c-3.2,2.2-5.9,4.8-9.1,6.3c-22,10.4-44.9,13.3-68.5,6.1c-10.1-3.1-17.9-9.3-22.8-18.9
		c-0.4-0.7-1.3-1.3-2.2-1.5c-2.6-0.6-5.1-1.2-7.8-1.5c-0.9-0.1-1.9,0.2-2.7,0.6c-15.6,6-31.8,10.2-48.3,12.7
		c-0.5,0.1-0.9,0.1-1.4,0.1c-0.7-4,0.8-6.5,4.5-7.1c17.5-2.8,34.3-8.1,50.6-15c0.9-0.4,1.8-1.4,2-2.3c1.5-4.9,2-9.8,1.5-15.1
		c-1.6-18.1,3.8-34.6,13.3-49.8c7.4-11.8,17.5-20.7,29.5-27.5c1.2-0.6,2.4-1.2,3.8-1.9c-1,6.1-1.9,11.9-2.8,17.7
		c-1.9,12.6-3.8,25.1-7.6,37.3c-3.8,12.2-10.3,22.3-21,29.4c-3.6,2.4-7.5,4.4-12.3,3.8c-0.5,1.9-1,3.7-1.7,6.3
		c4.2-2.1,7.9-3.7,11.5-5.6c19.6-10.2,37.4-23,53.3-38.4c0.7-0.7,1.2-1.8,1.3-2.8c0.3-2.9,0.3-5.7,0.3-8.6c0-0.8,0-1.6-0.3-2.3
		c-6.6-15.4-7.4-31.4-5.2-47.8c2.7-19.9,10.8-37.5,23.9-52.7c0.6-0.7,1-1.4,1.5-2.1c0.2,0.1,0.4,0.3,0.6,0.4
		c0.4,3.1,0.8,6.2,1.1,9.4c1.4,13.7,3.3,27.5,4.2,41.3c0.8,12.5,0.2,25-6.1,36.4c-3.8,7-8.2,13.4-15.7,16.9c-0.5,0.2-0.9,1-1,1.6
		c-0.3,1.9-0.4,3.8-0.6,6.5c1.7-1.7,2.9-2.8,4.1-4c16.7-17.4,30.8-36.7,42.6-57.7c0.6-1,0.6-2.5,0.6-3.8c-0.2-7.1-3.6-12.7-7.4-18.5
		c-6.7-10.1-9.6-21.7-11.3-33.6c-3.1-21.5,0.3-42,9-61.8c0.3-0.7,0.7-1.4,1.1-2.1c0.1-0.2,0.3-0.3,0.5-0.6c2.1,5.4,4.2,10.7,6.3,16
		c5.5,13.6,10.8,27.3,14,41.7c2.9,13.6,2.1,26.9-3.6,39.6c-1.4,3.1-3.9,5.7-5.9,8.6c-0.3,0.5-0.9,1-0.8,1.5c0.1,2.1,0.4,4.2,0.6,6.3
		c0.2,0,0.4,0.1,0.6,0.1c2.4-4.7,4.8-9.5,7.1-14.3c10.3-21.6,18-44,23.6-67.2c0.2-1-0.2-2.2-0.5-3.3c-0.2-0.8-0.9-1.4-1.1-2.1
		c-1.5-5.9-5.5-9.6-10.2-13.2c-9.6-7.4-15.5-17.7-20.4-28.6c-9.4-20.9-11.2-42.6-7.4-65c0-0.2,0.1-0.4,0.2-0.7
		c0.2,0.1,0.5,0.1,0.6,0.3c8.4,11.2,16.9,22.3,25.1,33.6c6,8.2,11,17.1,14.2,26.8c3.1,9.3,4.2,18.9,2,28.6c-0.7,3-2.4,5.7-3.7,8.5
		c-0.2,0.5-0.6,1.2-0.4,1.7c0.9,2.3,1.9,4.5,3.4,6.7c1.4-7.6,2.9-15.2,4.1-22.8c3.2-19.4,4.4-39.1,4.8-58.7c0-2.5-0.9-4.3-2.1-6.5
		c-3.1-5.3-7.7-7.8-13.2-10.1c-11.3-4.6-19.3-13.5-26.2-23.2c-10.7-15.1-16.1-32.2-18-50.4c-0.3-2.9-0.4-5.7-0.6-8.6
		c0-0.3,0.1-0.6,0.1-1.3c1.2,1,2.1,1.9,3.1,2.7c8.8,7.1,17.7,13.9,26.3,21.2c9.6,8.2,17.8,17.7,22.5,29.7c3.9,9.9,5.5,20.2,3.1,30.8
		c-0.2,0.7,0,1.6,0.4,2.2c1.1,1.5,2.4,2.9,3.9,4.6c0-3.9,0.1-7.5,0-11c-1.2-25-4.6-49.6-10.4-74c-0.5-1.9-0.9-3.7-3-4.4
		c-0.3-0.1-0.6-0.3-0.8-0.5c-3.1-3.6-7.1-4.5-11.9-4.6c-11.1-0.3-20.4-5.4-28.9-12c-16.7-12.9-26.3-30.4-32.1-50.2
		c-0.1-0.3,0-0.6,0-1.4c13.6,5.8,27.1,11,40.2,17.2c9.6,4.5,17.9,11.1,23.5,20.6c4.1,7,5.7,14.5,5.5,22.5c0,0.9,0.6,2.1,1.3,2.7
		c1.2,1,2.7,1.7,4.6,2.9c-1.6-5.7-3-10.8-4.5-15.9c-6.1-20.4-13.8-40.2-23.1-59.3c-0.6-1.3-1.3-2.2-2.9-2.2c-0.7,0-1.5-0.3-2-0.7
		c-3.5-2.3-6.9-1.8-10.8-0.7c-12.4,3.5-24.1,0.4-35.2-5.1c-14.3-7.2-24.5-18.7-32.7-32.2c-0.2-0.3-0.3-0.7-0.6-1.4
		c4.6,0.3,8.8,0.6,13.1,0.8c9.9,0.5,19.8,0.8,29.5,3.1c8.8,2.1,17,5.5,23.5,12.2c4.4,4.6,7.4,10.1,8.4,16.4c0.3,2.2,1.2,3.3,3.3,3.6
		c1.1,0.2,2.3,0.7,4,1.2c-1.3-2.5-2.3-4.6-3.3-6.6c-9.4-17.6-19.9-34.4-32-50.3c-0.9-1.1-1.7-1.8-3.2-1.5c-0.5,0.1-1,0.1-1.4,0
		c-4.3-1.8-7.8,0.2-11.6,1.9c-14.3,6.3-28.7,5-42.8-1.1c-10.6-4.6-19.1-11.9-26.1-21c-0.4-0.5-0.7-1-1.2-1.8
		c4.9-0.8,9.5-1.7,14.1-2.3c7.3-1,14.6-2.3,21.9-2.6c12.3-0.6,23.8,2.3,32.8,11.2c2.8,2.8,4.9,6.5,6.7,10c1,1.8,1.9,2.7,3.8,2.8
		c1,0.1,2,0.2,3.4,0.3c-0.5-0.8-0.8-1.3-1.2-1.7c-10-12.5-20.8-24.3-32.7-35.1c-2-1.8-4.1-3.5-6.3-5.1c-0.6-0.5-1.6-0.7-2.4-0.8
		c-19-0.8-33.6-9.8-45.3-24.1c-7.9-9.7-13.2-20.7-16.3-32.8c-0.2-0.6-0.2-1.3-0.3-1.9c0.3,0,0.6,0,1,0c0.9,0.5,1.7,1.1,2.6,1.5
		c7.4,2.7,14.9,5.4,22.3,8.2c12,4.5,22.8,10.9,31,21c5.9,7.4,9.4,15.5,8.3,25.2c-0.1,0.6,0.5,1.4,1,1.9c2.2,2.1,4.6,4,6.8,6
		c15.2,14.4,29.1,29.9,41.7,46.6c0.4,0.5,0.9,1,1.5,1.8c-0.3-6.4-0.3-6.4-4-10.6c-6.8-7.7-12.5-16.2-16.4-25.8
		c-8.2-20.1-10.6-41-8.6-62.6c0.3-3,1-6,1.6-9.6c2.4,2.1,4.3,3.7,6,5.5c9.1,8.9,15.8,19.4,21.5,30.7c6.6,13.3,10.6,27.2,10,42.2
		c-0.3,6.8-1.2,13.7-5.7,18.9c-2.7,3.2-3,6.1-2.2,9.7c0.2,1,0.2,2.1,0.5,3.1c0.6,1.7,1,3.6,2.1,5.1c11.9,17,22.6,34.7,31.6,53.4
		c1.8,3.8,3.6,7.6,5.4,11.3c0.2-2.9,0.4-5.5-1.1-8.3c-14.8-27-17.5-55.5-10-85.2c1.8-7,4.7-13.7,8.4-20.3c1,1.4,1.8,2.4,2.5,3.5
		c4.6,7.5,7.9,15.5,10.3,23.9c4.9,17,8.5,34.1,7.4,51.9c-0.6,9.8-3,19.2-10.1,26.3c-3.3,3.3-4.4,6.6-3.8,10.9c0.4,2.5,0,5.3,1,7.6
		c6.3,16,11.8,32.2,16,48.9c1.6,6.4,3,12.8,4.7,19.9c0.8-3.3,1.7-5.8,0.9-8.7c-2.9-10.4-4.8-21-5.4-31.8
		c-1.2-20.9,3.2-40.5,14.4-58.4c3.2-5,6.9-9.7,10.5-14.7c0.5,0.6,0.7,0.7,0.8,0.9c0.4,0.8,0.7,1.6,1,2.4c3.8,10.7,5.3,21.8,5.9,33.1
		c0.8,15,0.4,29.9-3.1,44.6c-2.3,9.6-6.2,18.8-14.9,24c-5.3,3.2-6.8,7.4-7.5,12.6c-0.3,1.9-1.4,3.4-1,5.6
		c3.6,20.3,5.2,40.7,5.8,61.3c0.1,4.2,0,8.5,0,12.7c2.3-2,2.9-4.2,2.7-6.8c-0.7-9.6-0.6-19.2,0.9-28.7c3.2-20.8,12.3-38.7,26.2-54.3
		c5-5.6,10.8-10.4,17.5-15.1c0.4,4.3,0.9,8.2,1,12.1c0.3,15.9-2.4,31.4-6.9,46.5c-3,10.2-6.8,20.2-13,28.9
		c-5.1,7.2-11.4,13.1-20.5,14.7c-2.2,0.4-3.3,1.3-4,3.3c-0.9,2.5-2.1,4.8-3.2,7.2c-0.2,0.4-0.3,0.9-0.3,1.4
		c-0.1,3.1-0.2,6.2-0.3,9.3c-0.5,16.8-2.1,33.5-5.2,50c-1.2,6.5-2.6,13-3.9,19.4c0.2,0.1,0.4,0.2,0.6,0.3c0.7-1.7,1.8-3.2,2.1-5
		c4.9-27.6,18.2-50.1,40.9-66.7c7.8-5.7,16.2-10.5,25.9-12.6C922.3,353.2,922.3,355.6,922.3,358z"/>
</g>
<rect x="109" y="276.4" class="st0" width="700" height="156.6"/>
<text transform="matrix(1 0 0 1 196.5723 342.0498)"><tspan x="0" y="0" class="st1 st2">“CONTEST”</tspan><tspan x="42.6" y="90" class="st1 st2">SKITTLES</tspan></text>
</svg>
