<?xml version="1.0"?><svg width="744.09448819" height="1052.3622047" xmlns="http://www.w3.org/2000/svg">

 <metadata id="metadata17720">image/svg+xml</metadata>
 <g>
  <title>Layer 1</title>
  <g display="inline" id="layer3"/>
  <g display="inline" id="layer1">
   <g id="g22249">
    <path fill="#FFFFFF" stroke="black" stroke-width="2.748" stroke-linecap="round" stroke-linejoin="round" stroke-miterlimit="4" stroke-dashoffset="0" d="m209.270035,228.487167c-82.828537,55.751511 -137.767921,152.950729 -137.767921,263.556595c0,172.919739 134.165749,313.244812 299.495476,313.244812c165.329742,0 299.527191,-140.325073 299.527191,-313.244812c0,-114.147247 -58.510193,-214.065063 -145.817871,-268.827072c-19.972321,-9.625443 -109.794617,-64.748596 0,9.944275c27.871399,18.102814 52.915161,40.936356 73.368469,67.654251c50.723572,64.738831 73.04718,152.252472 61.483704,235.082794c-11.21167,85.658081 -60.05896,164.257751 -128.957336,211.315979c-67.713928,47.292175 -154.871521,61.453247 -233.511383,39.810303c-83.922516,-22.091003 -155.899902,-86.606995 -191.613731,-168.920227c-38.301933,-86.027466 -33.718864,-191.15509 10.395187,-273.799164c22.158226,-42.642792 54.815758,-78.765808 93.398216,-105.641418c109.047592,-81.635468 27.96579,-29.222855 0,-10.176315z" id="path18706"/>
    <path fill="#FFFFFF" stroke="black" stroke-width="1.015004" d="m242.666534,842.782959c0.002701,-1.153625 58.146698,-30.154297 68.560883,-34.196411c14.372772,-5.578552 38.063202,-9.592529 46.460236,-7.871948l6.103027,1.250549l-6.815521,8.157654c-3.748505,4.486694 -9.976593,10.358337 -13.840149,13.048035c-9.322876,6.490417 -32.133148,14.252075 -49.595093,16.875732c-12.301086,1.848267 -50.876144,3.923096 -50.873383,2.736389zm231.51474,-0.636414c-26.107849,-1.57666 -28.094482,-1.940674 -52.433685,-9.607666c-14.561615,-4.586975 -18.285797,-6.803955 -29.527008,-17.577454l-12.863678,-12.32843l5.680084,-1.59082c14.613159,-4.092834 61.509369,9.407715 82.048126,23.619995c3.902893,2.700745 9.331848,5.578857 12.064301,6.395813c6.227844,1.861938 23.846893,10.86853 23.846893,12.190125c0,0.541016 -1.117828,0.838501 -2.484039,0.661072c-1.366241,-0.177429 -13.215179,-0.970581 -26.330994,-1.762634zm-284.175659,-34.930725c-10.92984,-3.397034 -23.761215,-7.28949 -28.514191,-8.649902l-8.641739,-2.473572l14.60347,-2.528015c8.031906,-1.390442 23.270905,-4.30188 33.864441,-6.469849c29.540558,-6.045593 59.129456,-4.28949 78.269897,4.645325l5.116882,2.38855l-6.389282,5.715271c-16.735962,14.970398 -53.884277,18.071594 -88.309479,7.372192zm295.243866,2.353394c-14.21521,-5.237549 -27.200867,-14.3526 -23.483612,-16.483826c7.766357,-4.452881 33.679382,-9.932739 46.969604,-9.932739c12.253052,0 44.524841,5.057739 75.312073,11.803162c5.803833,1.271606 3.352539,2.392517 -22.051025,10.083496c-24.929749,7.547546 -30.967896,8.643494 -47.268127,8.579468c-13.381042,-0.052612 -21.751709,-1.202515 -29.478912,-4.049561zm-164.369507,-16.421936c-12.545288,-3.724182 -38.648376,-33.9953 -43.406921,-50.337952l-1.372559,-4.713806l8.582764,4.485901c4.72052,2.467285 14.765045,6.640259 22.321198,9.273315c25.130707,8.757141 36.688568,18.224915 43.932983,35.988403l3.069031,7.52533l-13.440582,-0.183655c-7.392273,-0.100952 -16.250977,-1.017883 -19.685913,-2.037537zm70.83078,-1.406372c0,-5.549072 14.168274,-23.645569 23.428284,-29.923828c4.086487,-2.77063 13.158997,-6.964355 20.161102,-9.319397c7.002106,-2.355042 17.137146,-6.459534 22.522308,-9.121155l9.791229,-4.839294l-1.265686,5.166687c-3.058258,12.483826 -22.432556,37.761841 -34.492004,45.002441c-6.925201,4.157959 -12.318573,5.534912 -24.512024,6.258118c-14.703247,0.872009 -15.633209,0.680237 -15.633209,-3.223572zm-125.19632,-9.999023c-21.477325,-7.848328 -36.674088,-25.617798 -44.790512,-52.37323c-2.745789,-9.051331 -5.545868,-20.408752 -6.222397,-25.238647l-1.230042,-8.781555l26.76474,27.105347c27.61911,27.97052 33.251465,36.339905 34.970367,51.964172c0.99942,9.084167 -0.824402,10.491333 -9.492157,7.323914zm201.249817,-6.698547c2.348663,-17.939819 12.541382,-31.682617 50.339996,-67.873169l12.127136,-11.611145l-1.613586,10.457703c-5.170166,33.508057 -22.24707,62.688416 -42.2789,72.244446c-5.593689,2.668396 -12.300201,4.860657 -14.90332,4.871582c-4.373444,0.018372 -4.652313,-0.596069 -3.671326,-8.089417zm-311.541779,-12.00769c-22.876129,-7.272766 -28.800133,-10.287476 -50.701424,-25.801941c-12.126457,-8.590149 -21.7761,-15.818298 -21.443703,-16.062561c3.002571,-2.206299 74.661804,5.795288 80.939117,9.037842c1.721191,0.889099 8.942154,4.517334 16.046539,8.062744c7.104401,3.545349 16.406586,9.585388 20.671524,13.42218l7.754456,6.976074l-7.132858,3.053345c-11.854279,5.074463 -32.456482,5.660583 -46.133652,1.312317zm394.752563,1.639282c-4.761719,-0.959106 -9.926331,-2.822449 -11.476807,-4.140808c-3.658081,-3.110352 -0.180481,-7.233032 14.553284,-17.252502c16.30249,-11.086365 34.709167,-16.791687 61.615601,-19.098389c34.641785,-2.969849 44.056274,-3.307312 42.987427,-1.540833c-2.281555,3.770813 -43.209778,30.36908 -52.762573,34.289246c-22.278748,9.142334 -37.391418,11.273193 -54.916931,7.743286zm-357.467438,-26.929077c-12.480423,-9.648376 -23.701202,-26.08313 -26.348251,-38.591431c-1.265381,-5.979492 -1.982224,-22.315735 -1.629776,-37.14209l0.62912,-26.467651l7.262192,14.251831c3.994171,7.838501 9.603302,17.758362 12.464645,22.044128c13.898224,20.816895 21.652557,49.028687 17.842529,64.914734l-1.798996,7.500977l-8.421463,-6.510498zm347.7164,-13.92572c1.051697,-21.957092 4.434326,-32.793518 14.952087,-47.900574c2.470825,-3.548889 8.416931,-13.977661 13.213562,-23.174988l8.72113,-16.722473l1.391602,17.115356c1.673401,20.581726 -1.124451,46.984009 -6.137207,57.91333c-3.915222,8.536438 -20.788452,27.079163 -28.477539,31.295105l-4.673767,2.562683l1.010132,-21.08844zm-423.020332,-25.098999c-6.701553,-1.518555 -15.19091,-4.35376 -18.865227,-6.300415c-11.991142,-6.352905 -32.429771,-24.485107 -41.409981,-36.737c-4.835621,-6.59729 -11.477299,-14.972717 -14.759319,-18.612c-6.731209,-7.46405 -6.334419,-7.81134 4.21159,-3.686401c4.120811,1.611816 12.517872,3.942444 18.66011,5.17926c12.829178,2.58313 35.049889,12.988464 47.55265,22.267517c9.50161,7.051697 24.294113,23.972595 28.852737,33.00415c2.711288,5.371582 2.664581,5.843811 -0.580231,5.869324c-1.940765,0.01532 -5.3172,0.421326 -7.503174,0.902222c-2.185959,0.480896 -9.457581,-0.368103 -16.159157,-1.886658zm487.632454,1.551697c-3.005737,-0.476074 -5.464905,-1.328613 -5.464905,-1.894714c0,-4.045166 12.153809,-20.717163 21.622742,-29.661011c13.074463,-12.349365 39.900024,-26.841125 55.977539,-30.240173c5.957581,-1.259583 14.75177,-3.610413 19.542664,-5.224121c10.322266,-3.476807 12.553833,-2.457397 5.291992,2.417419c-2.871582,1.927612 -8.298645,8.18512 -12.060242,13.905457c-11.624512,17.67804 -17.974548,23.740356 -42.391418,40.470825c-9.203796,6.306458 -32.25769,11.851257 -42.518372,10.226318zm-470.999725,-27.047668c-5.152908,-6.167603 -7.617622,-11.897156 -10.103127,-23.485962c-1.808151,-8.430542 -3.287537,-18.866028 -3.287537,-23.190125c0,-11.321777 7.254311,-45.79541 11.737984,-55.780701c3.773193,-8.403137 3.827454,-8.435791 4.000961,-2.410706c0.096756,3.359375 3.290482,18.934509 7.097168,34.611511c4.336151,17.8573 6.930832,33.498596 6.946884,41.876892c0.02536,13.22998 -4.388672,33.251892 -7.808014,35.416992c-0.972778,0.615967 -4.835709,-2.551086 -8.58432,-7.037903zm463.814728,2.436829c-8.048645,-20.835205 -7.741821,-34.456299 1.637695,-72.69281c3.296204,-13.437439 6.004578,-26.897095 6.018555,-29.9104c0.082947,-17.801697 8.802673,2.308899 13.968201,32.215271c4.964966,28.7453 -1.469666,62.238342 -13.743286,71.535156l-5.754211,4.358582l-2.126953,-5.505798zm-516.672813,-57.524231c-14.246407,-5.183167 -28.514011,-16.6651 -37.02253,-29.794067c-3.837841,-5.921936 -12.308109,-21.792175 -18.822821,-35.26709l-11.844939,-24.499939l9.36271,5.515137c5.1495,3.033325 14.589481,9.235474 20.977772,13.782593c6.388268,4.547119 14.751308,10.217834 18.584499,12.601746c14.38821,8.947937 30.71104,35.035767 33.632336,53.752625c1.475464,9.453186 0.834717,9.621643 -14.867027,3.908997zm564.099449,1.053528c0,-1.71582 2.8078,-10.578979 6.239502,-19.695984c7.023438,-18.659058 16.318237,-30.413696 33.272339,-42.078247c15.501221,-10.664978 40.782471,-26.710876 42.096375,-26.718384c2.09729,-0.012085 -23.945984,51.850586 -30.839294,61.413452c-8.066528,11.19043 -21.401978,21.083069 -35.574951,26.390442c-12.344849,4.622864 -15.19397,4.752014 -15.19397,0.688721zm-550.273407,-26.341492c-5.348053,-14.644409 -5.413429,-33.163391 -0.178429,-50.528015c4.257317,-14.12146 29.772346,-56.503326 29.676994,-49.295074c-0.313416,23.697296 -4.284447,71.215546 -6.570625,78.62619c-3.90094,12.644836 -9.909744,24.407288 -14.767532,28.908142c-3.930038,3.641235 -4.059082,3.519348 -8.160408,-7.711243zm543.783051,7.574402c-4.798889,-5.459351 -12.593506,-22.798584 -15.177795,-33.763062c-2.030823,-8.616333 -6.588013,-74.763916 -5.251221,-76.221741c1.486877,-1.621613 25.445801,39.005737 29.143127,49.418335c6.121643,17.239868 6.062439,41.182129 -0.134583,54.458557c-2.482727,5.31897 -4.724121,9.670898 -4.980896,9.670898c-0.256714,0 -1.876099,-1.603333 -3.598633,-3.562988zm-580.134514,-72.999634c-18.171249,-12.260071 -28.431059,-32.977386 -34.277378,-69.214996c-1.644171,-10.191193 -3.63028,-20.269226 -4.413601,-22.395691c-1.09268,-2.9664 0.24473,-2.444702 5.746181,2.241608c3.94368,3.359344 9.356068,7.658295 12.027519,9.553223c8.363609,5.932465 29.678646,38.436157 33.574512,51.198303c4.403465,14.425171 4.957397,35.957092 0.925018,35.957092c-1.487213,0 -7.599243,-3.302734 -13.582253,-7.339539zm609.151665,-7.81427c1.472046,-17.841492 6.061523,-31.259644 15.406677,-45.044464c6.990112,-10.310852 36.951599,-41.600281 39.834839,-41.600281c0.8927,0 0.741089,2.376556 -0.336792,5.281219c-1.078003,2.904724 -3.215881,13.211792 -4.750977,22.904694c-5.396973,34.076935 -16.762756,55.931732 -34.835022,66.98288c-16.094604,9.841797 -16.801636,9.448364 -15.318726,-8.524048zm-587.945869,-9.989166c-0.902634,-7.401489 -0.295387,-15.06665 1.895126,-23.922668c5.489021,-22.191315 11.578667,-32.285492 30.915428,-51.245209c9.852005,-9.659882 17.912704,-17.096161 17.912704,-16.525024c0,0.571136 -1.429916,5.791504 -3.177658,11.60083c-9.673958,32.155975 -15.722275,49.788635 -19.294418,56.249054c-5.487648,9.924835 -23.678764,34.734222 -25.468323,34.734222c-0.800072,0 -2.052361,-4.901062 -2.78286,-10.891205zm571.855476,1.053864c-16.11908,-19.585052 -24.792297,-39.506714 -39.150391,-89.925262l-1.449463,-5.089935l4.93219,5.089935c2.712769,2.799469 11.658997,11.792145 19.880493,19.983704c12.736572,12.690125 15.743713,17.058014 20.324829,29.521576c5.716675,15.55307 8.420471,38.01474 5.512634,45.796204c-1.69873,4.545837 -2.029907,4.368652 -10.050293,-5.376221zm-585.89386,-67.307526c-15.861301,-9.909302 -22.195511,-31.863922 -19.69899,-68.277252c0.850159,-12.400024 1.567791,-25.45047 1.594749,-29.000977c0.04763,-6.275818 0.23772,-6.134155 6.82951,5.089905c3.729271,6.349976 8.018692,12.950806 9.532063,14.668549c4.086937,4.638855 11.932686,23.867737 14.796684,36.26474c2.517151,10.895782 1.894707,22.340729 -2.026489,37.26001c-2.369629,9.01593 -2.762817,9.158356 -11.027527,3.995026zm600.904785,-0.731049c-1.612915,-2.909485 -2.5448,-12.38092 -2.553955,-25.958618c-0.013611,-20.028259 0.391235,-22.213074 6.41394,-34.611511c3.535767,-7.278595 10.334961,-19.407837 15.109436,-26.953827l8.680847,-13.720032l1.703796,19.827942c2.995728,34.862 0.855103,54.292145 -7.746887,70.318817c-3.526794,6.570862 -13.914124,15.678162 -17.881775,15.678162c-0.652283,0 -2.328735,-2.061401 -3.725403,-4.580933zm-581.849709,-12.841248c0,-17.214111 9.870705,-36.083313 26.91761,-51.456482c7.177254,-6.472626 42.019165,-26.811981 45.929626,-26.811981c0.586411,0 -1.753647,3.435699 -5.20018,7.634918c-3.446564,4.199158 -11.642181,15.880554 -18.212479,25.958588c-13.159706,20.185394 -26.154594,34.882111 -38.862793,43.952362c-10.122238,7.224518 -10.571785,7.255249 -10.571785,0.722595zm563.347755,-0.151428c-11.780762,-7.976074 -28.582825,-25.186493 -32.868958,-33.667664c-5.860168,-11.596008 -15.892456,-26.44046 -23.120117,-34.210144c-3.615479,-3.886597 -6.573547,-7.840515 -6.573547,-8.78653c0,-0.945984 9.001709,3.102905 20.003723,8.997559c15.683167,8.402649 22.751404,13.701569 32.724915,24.533325c12.678772,13.769714 15.520569,19.77182 19.826172,41.874329c1.56073,8.011993 0.229553,8.179749 -9.992188,1.259125zm-560.73555,-68.327148c-12.868561,-22.345428 -12.370583,-36.867706 2.843269,-82.913879l5.661385,-17.134766l6.71801,20.879425c5.29348,16.451996 6.713074,24.186737 6.694656,36.476501c-0.025635,17.113586 -5.401909,34.93689 -13.418724,44.485504l-4.42849,5.274689l-4.070107,-7.067474zm560.425735,4.161957c-1.190369,-1.514709 -4.729492,-7.79303 -7.864868,-13.951843c-5.301331,-10.413757 -5.691589,-12.766022 -5.573181,-33.593536c0.113586,-19.987579 0.788086,-24.147003 6.272827,-38.683441c3.712585,-9.839447 6.604248,-15.078705 7.304077,-13.233826c8.706299,22.951202 17.020569,53.914368 17.063965,63.547729c0.038757,8.602692 -6.445557,27.796814 -11.58905,34.304474c-2.823547,3.572449 -3.842285,3.864685 -5.61377,1.610443zm-540.028267,-12.424866c6.844017,-22.112152 35.125114,-43.244629 68.738045,-51.363037c19.757324,-4.771912 21.148926,-4.032196 9.411942,5.003052c-5.788742,4.456238 -13.703293,11.148865 -17.587906,14.872589c-16.636795,15.94754 -49.100761,35.997406 -58.368332,36.048431c-2.84301,0.015686 -3.30986,-0.954926 -2.193748,-4.561035zm518.707954,3.117737c-7.073425,-1.853882 -27.981201,-14.692902 -38.945251,-23.915375c-6.011414,-5.05658 -17.363159,-14.445557 -25.226135,-20.864441c-7.862976,-6.418884 -13.992126,-11.982391 -13.620239,-12.363373c1.875427,-1.921387 26.934753,4.662933 41.467041,10.895416c18.634521,7.991852 33.913269,21.065277 40.813538,34.922485c6.303711,12.659363 5.76709,14.013336 -4.488953,11.325287zm-501.584358,-66.232849c-3.006836,-14.19635 -1.242294,-31.277313 4.437096,-42.951584c2.80751,-5.770966 10.84433,-17.622757 17.859634,-26.337357l12.755096,-15.844742l1.389023,13.288589c3.046677,29.147095 -3.92868,53.385132 -20.090027,69.809143c-5.784866,5.878876 -11.417969,10.688812 -12.518021,10.688812c-1.100037,0 -2.824821,-3.893799 -3.832802,-8.652863zm478.02076,-0.328278c-5.575256,-5.268036 -11.681702,-13.827484 -14.872681,-20.847015c-4.843994,-10.656006 -5.488037,-14.694458 -6.120422,-38.376862l-0.706726,-26.467636l7.630371,8.976501c22.119019,26.021179 28.133972,37.251999 29.786438,55.615952c1.099609,12.220032 -1.782837,30.10553 -4.844299,30.058502c-0.777588,-0.011932 -5.670288,-4.043671 -10.872681,-8.959442zm-448.31395,-7.444305c16.979034,-16.459381 33.980286,-22.282532 64.893402,-22.226807c21.850266,0.039368 25.72728,2.156708 12.928833,7.060669c-5.251907,2.01239 -16.703033,7.285187 -25.446899,11.717377c-17.419952,8.830017 -35.905426,13.67627 -52.375336,13.730988l-10.64328,0.035339l10.64328,-10.317566zm410.079025,7.424011c-6.557922,-1.37204 -20.418945,-6.647583 -30.802307,-11.72348c-10.383301,-5.075867 -22.223206,-10.45755 -26.310852,-11.95929c-10.707031,-3.933563 -5.690033,-5.931213 14.988708,-5.968048c31.77002,-0.05661 51.913391,7.341919 68.845215,25.286407l6.848389,7.257965l-10.822876,-0.199463c-5.952576,-0.109711 -16.188416,-1.322052 -22.746277,-2.694092zm-355.241577,-41.815125c-4.110779,-0.816727 -8.038788,-2.063538 -8.728958,-2.770615c-2.253891,-2.309113 3.210663,-6.955338 13.781586,-11.717804c15.871277,-7.150421 40.567123,-6.702225 63.52916,1.152985c9.563629,3.271667 17.388397,6.675735 17.388397,7.564636c0,0.88887 -3.353485,1.623749 -7.452148,1.633072c-4.098694,0.009277 -17.289032,1.365677 -29.311859,3.014191c-23.329239,3.198807 -37.170502,3.514832 -49.206177,1.123535zm281.713562,-0.041428c-6.557892,-0.913696 -19.344666,-2.351517 -28.415039,-3.195221c-9.070374,-0.843689 -15.777313,-2.249954 -14.904327,-3.125046c3.35614,-3.364105 32.09079,-11.899994 44.413757,-13.193481c14.916199,-1.565689 34.526825,2.659988 43.825226,9.443359c6.623901,4.832291 7.176392,6.99791 2.277405,8.926651c-5.68103,2.236618 -34.364014,2.931686 -47.197021,1.143738zm-309.884781,-7.381561c-4.350861,-17.76033 8.678726,-39.785568 33.843475,-57.20903c6.455948,-4.469894 13.656143,-9.163147 16.000412,-10.429428l4.26236,-2.302307l-3.543701,14.114548c-4.98642,19.860748 -10.588379,30.671219 -22.105606,42.658447c-8.154114,8.486877 -22.37085,18.472092 -26.300125,18.472092c-0.471573,0 -1.442108,-2.386978 -2.156815,-5.304321zm368.305374,1.242828c-9.339233,-5.050156 -27.282898,-25.232941 -31.884644,-35.863464c-3.801697,-8.782257 -10.432556,-33.264786 -9.30661,-34.361862c0.360718,-0.35141 7.139435,3.661682 15.063812,8.918015c16.032959,10.634811 33.312256,30.016235 36.491089,40.930298c2.417969,8.301636 1.669678,22.847 -1.218018,23.676819c-1.092957,0.314087 -5.208496,-1.170822 -9.14563,-3.299805zm-304.757233,-37.166931c4.144699,-19.718033 14.402954,-27.829773 45.625153,-36.078018c7.650879,-2.021225 15.56604,-4.369537 17.589233,-5.218445c6.977295,-2.927719 -2.071167,10.834106 -17.551605,26.694138c-14.871063,15.235718 -26.515564,21.219223 -41.294693,21.219223c-5.457703,0 -5.686203,-0.346054 -4.368088,-6.616898zm231.567627,3.264053c-4.843964,-1.737122 -12.342896,-6.045273 -16.664246,-9.573669c-7.370728,-6.018204 -29.696838,-34.047531 -28.277771,-35.501404c0.356995,-0.365738 4.995422,0.71431 10.307617,2.400085c5.312195,1.685791 15.34552,4.715057 22.296295,6.731705c19.353973,5.61528 34.062469,20.79715 34.062469,35.158798c0,3.330368 -1.259674,4.118378 -6.458527,4.040146c-3.552216,-0.053467 -10.421814,-1.518494 -15.265839,-3.255661z" id="path17799"/>
   </g>
  </g>
 </g>
</svg>