<?xml version="1.0" encoding="utf-8"?>
<!-- Generator: Adobe Illustrator 21.1.0, SVG Export Plug-In . SVG Version: 6.00 Build 0)  -->
<svg version="1.1" id="Layer_1" xmlns="http://www.w3.org/2000/svg" xmlns:xlink="http://www.w3.org/1999/xlink" x="0px" y="0px"
	 viewBox="0 0 282.7 30.9" style="enable-background:new 0 0 282.7 30.9;" xml:space="preserve">
<g>
	<path d="M8.5,0.6h6.1l7.8,29.7h-5L15.6,23H6.9L5,30.3H0L8.5,0.6z M14.8,19.2L11.4,4.6h-0.1L7.7,19.2H14.8z"/>
	<path d="M25.7,0.6h4.7v25.7H42v4H25.7V0.6z"/>
	<path d="M45,0.6h16.1v4H49.7v8.2h10.7v4H49.7v9.5h11.7v4H45V0.6z"/>
	<path d="M71.6,15.2L64.4,0.6h5.2l4.7,9.9l4.7-9.9h5.1L77,15.2l7.6,15.1h-5.2l-5.2-10.7l-5.3,10.7h-5.1L71.6,15.2z"/>
	<path d="M101.9,0.6h6.1l7.8,29.7h-5l-1.8-7.3h-8.7l-1.9,7.3h-5L101.9,0.6z M108.3,19.2l-3.4-14.7h-0.1l-3.5,14.7H108.3z"/>
	<path d="M118.9,0.6h9.6c4.4,0,8,2,8,7.2c0,3.6-1.4,5.8-4.4,6.7v0.1c3.2,0.6,5.3,2.5,5.3,7.6c0,5-3.6,8.1-9.2,8.1h-9.4V0.6z
		 M127.4,13.1c2.9,0,4.4-1.9,4.4-4.7c0-3.5-2.1-4.2-4.8-4.2h-3.3v9H127.4z M128.3,26.7c2.8,0,4.4-1.8,4.4-5.2c0-3.2-1.9-5-4.7-5
		h-4.4v10.3H128.3z"/>
	<path d="M140.8,0.6h10.5c4.2,0,7.5,2.1,7.5,7.7c0,3.8-1.7,6.8-5,7.3v0.1c3,0.3,4.5,1.9,4.7,6.1c0,1.9,0.1,4.2,0.2,6
		c0.1,1.5,0.8,2.2,1.4,2.6h-5.4c-0.5-0.5-0.7-1.5-0.8-2.6c-0.2-1.8-0.1-3.5-0.2-5.6c-0.1-3.2-1.1-4.7-4.3-4.7h-3.9v12.9h-4.7V0.6z
		 M149.3,13.8c3,0,4.7-1.8,4.7-4.8c0-3.2-1.4-4.8-4.5-4.8h-4v9.7H149.3z"/>
	<path d="M170.8,0.6h6.1l7.8,29.7h-5L178,23h-8.7l-1.9,7.3h-5L170.8,0.6z M177.2,19.2l-3.4-14.7h-0.1l-3.5,14.7H177.2z"/>
	<path d="M188,0.6h4.7v11.9h8.7V0.6h4.7v29.7h-4.7V16.5h-8.7v13.8H188V0.6z"/>
	<path d="M217.8,0.6h6.1l7.8,29.7h-5l-1.8-7.3h-8.7l-1.9,7.3h-5L217.8,0.6z M224.1,19.2l-3.4-14.7h-0.1l-3.5,14.7H224.1z"/>
	<path d="M234.4,0.6h7.4l5.2,22h0.1l5.2-22h7.2v29.7h-4.5V5.6H255l-6,24.7h-4l-6-24.7h-0.1v24.7h-4.5V0.6z"/>
	<path d="M268.6,21.1v0.7c0,3.6,1.6,5.5,4.9,5.5c3,0,4.5-2.1,4.5-4.3c0-3.1-1.6-4.5-4.2-5.3l-3.2-1.1c-4.3-1.7-6.2-3.9-6.2-8.2
		c0-5.4,3.7-8.4,9.2-8.4c7.6,0,8.4,4.7,8.4,7.8v0.7h-4.7V7.9c0-2.7-1.2-4.3-4.2-4.3c-2,0-4,1.1-4,4.3c0,2.5,1.3,3.8,4.5,5l3.2,1.2
		c4.2,1.5,6,3.8,6,7.9c0,6.3-3.8,9-9.8,9c-7.4,0-9-4.9-9-9.1v-0.7H268.6z"/>
</g>
</svg>
