<?xml version="1.0" encoding="utf-8"?>
<!-- Generator: Adobe Illustrator 21.1.0, SVG Export Plug-In . SVG Version: 6.00 Build 0)  -->
<svg version="1.1" id="Layer_1" xmlns="http://www.w3.org/2000/svg" xmlns:xlink="http://www.w3.org/1999/xlink" x="0px" y="0px"
	 viewBox="0 0 79.9 8.9" style="enable-background:new 0 0 79.9 8.9;" xml:space="preserve">
<g>
	<path d="M1.7,0.2h1.8l2.3,8.6H4.3L3.7,6.6H1.2L0.7,8.7h-1.4L1.7,0.2z M3.5,5.5l-1-4.2h0l-1,4.2H3.5z"/>
	<path d="M7,0.2h1.4v7.4h3.3v1.2H7V0.2z"/>
	<path d="M12.6,0.2h4.6v1.2h-3.3v2.4H17v1.2h-3.1v2.7h3.4v1.2h-4.7V0.2z"/>
	<path d="M20,4.4l-2.1-4.2h1.5L20.8,3l1.3-2.8h1.5l-2.1,4.2l2.2,4.4h-1.5l-1.5-3.1l-1.5,3.1h-1.5L20,4.4z"/>
	<path d="M28.7,0.2h1.8l2.3,8.6h-1.4l-0.5-2.1h-2.5l-0.6,2.1h-1.4L28.7,0.2z M30.6,5.5l-1-4.2h0l-1,4.2H30.6z"/>
	<path d="M33.5,0.2h2.8c1.3,0,2.3,0.6,2.3,2.1c0,1-0.4,1.7-1.3,1.9v0c0.9,0.2,1.5,0.7,1.5,2.2c0,1.4-1,2.3-2.6,2.3h-2.7V0.2z
		 M35.9,3.8c0.8,0,1.3-0.6,1.3-1.4c0-1-0.6-1.2-1.4-1.2h-1v2.6H35.9z M36.2,7.7c0.8,0,1.3-0.5,1.3-1.5c0-0.9-0.6-1.5-1.3-1.5h-1.3v3
		H36.2z"/>
	<path d="M39.8,0.2h3C44,0.2,45,0.8,45,2.4c0,1.1-0.5,2-1.4,2.1v0c0.9,0.1,1.3,0.6,1.3,1.8c0,0.6,0,1.2,0,1.7c0,0.4,0.2,0.6,0.4,0.7
		h-1.5c-0.1-0.2-0.2-0.4-0.2-0.8c0-0.5,0-1-0.1-1.6c0-0.9-0.3-1.3-1.2-1.3h-1.1v3.7h-1.4V0.2z M42.2,4c0.9,0,1.4-0.5,1.4-1.4
		c0-0.9-0.4-1.4-1.3-1.4h-1.2V4H42.2z"/>
	<path d="M48.2,0.2h1.8l2.3,8.6h-1.4l-0.5-2.1h-2.5l-0.6,2.1h-1.4L48.2,0.2z M50,5.5l-1-4.2h0l-1,4.2H50z"/>
	<path d="M52.9,0.2h1.4v3.4h2.5V0.2h1.4v8.6h-1.4v-4h-2.5v4h-1.4V0.2z"/>
	<path d="M61.2,0.2H63l2.3,8.6h-1.4l-0.5-2.1h-2.5l-0.6,2.1h-1.4L61.2,0.2z M63.1,5.5l-1-4.2h0l-1,4.2H63.1z"/>
	<path d="M66,0.2h2.1l1.5,6.3h0l1.5-6.3h2.1v8.6h-1.3V1.6h0l-1.7,7.1H69l-1.7-7.1h0v7.1H66V0.2z"/>
	<path d="M75.8,6.1v0.2c0,1,0.5,1.6,1.4,1.6c0.9,0,1.3-0.6,1.3-1.2c0-0.9-0.5-1.3-1.2-1.5l-0.9-0.3c-1.2-0.5-1.8-1.1-1.8-2.4
		c0-1.6,1.1-2.4,2.7-2.4c2.2,0,2.4,1.4,2.4,2.3v0.2h-1.4V2.3c0-0.8-0.3-1.2-1.2-1.2c-0.6,0-1.2,0.3-1.2,1.2c0,0.7,0.4,1.1,1.3,1.5
		l0.9,0.3c1.2,0.4,1.7,1.1,1.7,2.3c0,1.8-1.1,2.6-2.8,2.6c-2.1,0-2.6-1.4-2.6-2.6V6.1H75.8z"/>
</g>
</svg>
