<?xml version="1.0" encoding="utf-8"?>
<!-- Generator: Adobe Illustrator 18.1.0, SVG Export Plug-In . SVG Version: 6.00 Build 0)  -->
<svg version="1.1" id="Layer_1" xmlns="http://www.w3.org/2000/svg" xmlns:xlink="http://www.w3.org/1999/xlink" x="0px" y="0px"
	 viewBox="0 0 700 700" enable-background="new 0 0 700 700" xml:space="preserve">
<g id="tHQIbb_1_">
	<g>
		<path fill="#FFFFFF" d="M0,620C0,439.3,0,258.7,0,78.1c0.5-1.9,1.2-3.8,1.6-5.8C7.1,44.1,22,22.5,48.2,10c9.7-4.6,20.6-6.7,31-10
			C259,0,438.9,0,618.8,0c2.5,0.6,5,1.2,7.5,1.8c33.7,7.3,56.6,26.7,67.4,59.8c1.8,5.4,2.9,11,4.3,16.5c0,180.6,0,361.3,0,541.9
			c-0.6,2.1-1.3,4.2-1.7,6.3c-5.7,28-20.5,49.4-46.5,61.8c-9.7,4.6-20.6,6.7-31,10c-180.3,0-360.5,0-540.8,0
			c-1.9-0.5-3.8-1.2-5.7-1.6c-36-7.8-59.7-28.7-69.3-64.7C2.1,627.8,1,623.9,0,620z M557.9,295.5c0.5,2.3,0.9,4.1,1.3,5.9
			c1.9,9.8,4.6,19.6,5.7,29.5c6.4,58.7-9.2,111.2-46.9,156.6c-30,36-68.2,59.5-113.9,70.8c-46.9,11.6-92.9,8.4-137.7-9.2
			c-25.8-10.2-48.8-25.2-68.9-44.3c-15.4-14.7-28.4-31.4-38.7-50c-9.5-17.3-16.6-35.6-20.9-55c-6-27.2-6.5-54.5-1.5-81.9
			c1.3-7.4,3.2-14.7,4.9-22.4c-21.6,0-42.3,0-63.4,0c-0.2,1.9-0.4,3.5-0.4,5.2c0,95.7-0.1,191.4,0.1,287.1
			c0,18.8,11.7,30.1,30.4,30.1c160.2,0,320.3,0,480.5,0c19.5,0,30.7-11.2,30.7-30.8c0-95.1,0-190.3,0-285.4c0-2,0-3.9,0-6
			C598.3,295.5,578.3,295.5,557.9,295.5z M353.1,483.4c5.4-0.6,14.6-1.1,23.5-2.8c8.2-1.6,16.2-4,24-6.8
			c52.7-19.3,87.8-68.4,89-124.3c0.7-34.4-10.8-64.6-33.4-90.2c-23.5-26.6-53.3-42-88.6-46.5c-35.1-4.4-67.8,3-97.1,22.5
			c-29.2,19.4-48.8,46.3-57,80.8c-10.5,44-0.6,83.6,28.2,117.6C269.5,466.8,306.3,482.6,353.1,483.4z M547.5,215.6
			c12.4,0,24.9,0.1,37.3,0c21.2-0.2,33.9-12.9,33.9-34.2c0.1-23,0-46.1,0-69.1c0-21.7-12.9-34.8-34.5-34.9
			c-24.1-0.1-48.3-0.1-72.4,0c-21.8,0.1-34.6,12.9-34.7,34.7c-0.1,23-0.1,46.1,0,69.1c0.1,21.7,12.5,34.3,34.2,34.4
			C523.4,215.7,535.4,215.6,547.5,215.6z"/>
	</g>
</g>
</svg>
