
<svg version="1.1" id="Layer_1" xmlns="http://www.w3.org/2000/svg" xmlns:xlink="http://www.w3.org/1999/xlink" x="0px" y="0px"
	 viewBox="0 0 359.9 681.4" style="enable-background:new 0 0 359.9 681.4;" xml:space="preserve" preserveAspectRatio="none">
<path class="color" d="M341.3,632.8l-3-7.4c-7.3-18-18.9-27.4-44.2-36.3c-7.6-2.6-17.5-6.8-22.3-9.2l-9.6-5l1.7,5.9c4,13.7,22.6,36.8,36.1,46.5
	c-5.3-1.1-10.5-2.4-15.7-3.8c-7-1.8-13.9-4-20.7-6.4c0.1-1.3,0-2.9-0.2-4.9c-1.7-15.8-7.3-24.1-35.1-52.3l-27.8-28.2l1.4,10.3
	c0.7,4.9,3.5,16.2,6.2,25.3c3.9,12.9,9.4,23.7,16.5,32.3c-11.8-6.4-23.2-13.8-34.2-21.9l0.7-3c3.9-16.1-3.8-44.2-17.9-65.3
	c-2.9-4.3-8.4-14.1-12.4-22l-7.3-14.3l-1,0.2l-0.6,26.5c-0.4,14.9,0.4,31.2,1.6,37.3c0.9,4.2,2.7,8.8,5.3,13.4
	c-10.1-10-19.5-20.8-28.1-32.1c3.8-2.7,8-23.5,7.9-35.8c0-8.4-2.6-24.1-7-42c-3.8-15.7-7-31.2-7.1-34.5c-0.1-3.7-0.2-4.6-0.9-4.7
	c-0.8-0.2-1.3,0.8-4.1,6.9c-4.5,10.1-11.8,44.6-11.8,56c0,4.4,1.5,14.8,3.3,23.3c0.2,1,0.4,2,0.7,2.9c-6.8-11.4-12.9-23.1-18.2-35.2
	c-2.1-4.7-4.1-9.5-5.9-14.4c0,0,0,0,0,0c1,0,2.1-1,3.5-2.3c5-4.6,10.9-16.3,14.9-29.1c2.3-7.4,6.3-55.2,6.6-78.8
	c0-1-0.5-1.3-0.8-1.3c-3.9-0.6-26.3,38.6-29.9,50.5c-3.2,10.7-4.4,21.7-3.7,32.1c-4.9-18.1-8-36.7-9.6-55.6c0.4,1.4,1,2.3,1.5,2.3
	c2.3,0,21-26.1,25.9-35c3.6-6.5,9.6-23.9,19.3-56.3c1.6-5.2,3.2-11,3.2-11.7l0-0.4l-0.3-0.1c-0.3-0.1-1-0.4-18.4,16.7
	C80.6,290.9,74.5,301,69,323.4c-0.5,1.9-0.9,3.8-1.2,5.7c0.1-18.9,1.8-37.9,5.2-56.5c0.1,0.1,0.2,0.1,0.2,0.2
	c0.2,0.1,0.5,0.2,0.7,0.2c1.5,0,3.9-1.7,9.5-5.6c12.7-9.1,25.8-23.9,39-44.1c6.6-10.1,14.7-21.7,18.2-25.9c3.9-4.7,5.7-7.4,5.3-8.1
	l-0.2-0.3h-0.3c-4,0-39,20.4-46.3,26.9c-7.1,6.4-12.9,13.4-17.4,20.6c4.2-13.8,9.4-27.4,15.6-40.4c0.1,0,0.2,0,0.3,0
	c0,0,0.1,0,0.1,0c9.5-0.1,41.8-20,58.7-36.2c3.9-3.7,11.8-10.4,17.5-14.8c6.4-4.9,8.1-6.8,7.6-8c-0.7-1.5-4.4-1-17.4,2.1
	c-18.9,4.6-36.1,13.2-48.8,23.9c7-11.2,14.8-21.9,23.4-32.1l3.7,0c16.5-0.1,35.2-5,52.6-13.8c8.8-4.4,20.1-9.7,25.4-11.7
	c7-2.7,7.8-4.1,7.6-5.1c-0.3-1.5-3-2.9-20.7-2.9c-0.1,0-0.3,0-0.4,0c-18.3,0-31.7,2.1-43.1,7.2C171.7,97,180,90,188.7,83.5
	c1.5,0.9,5.2,1.9,8.4,2.5c5.3,1,10.9,1.6,17.5,1.6c8.5,0,18.7-0.9,31.9-2.7c12-1.7,25.2-3,29.2-3c0.8,0,8-0.1,8-2.1
	c0-1.9-14.8-7-17.7-8c-19.5-6.7-40.6-8-56.2-3.8c9.8-7.4,17.9-13.6,24.4-18.7c0.8,0.1,1.7,0.1,2.9,0.1c15,0,26.6-6,41.7-21.4
	c11-11.3,21.7-24.7,19.8-27.4c-0.7-1-2.3-0.3-2.9-0.1c-2,0.8-9.9,3.2-17.5,5.2c-30.9,8.2-41.4,16.2-45.7,35.3
	c-1.1,0.7-2.2,1.4-3.4,2.1c-8.8,5.6-18.8,12.1-26.8,17.5c8.7-10.3,13.5-20.8,17.9-38.1L224,7.2l-5.3,2.9c-2.4,1.3-9.6,6-16,10.5
	c-25.4,17.6-38.5,39.7-34,57.7c0.4,1.4,1.2,4.5,2.1,5.4c-11.6,9.7-22.6,20.3-32.7,31.6c10.1-15.7,14.1-35.9,11.6-59.5l-1.5-14.5
	l-13.5,16.8c-7.1,8.8-15.1,20.6-17.9,26.4c-5.7,11.7-7.5,29.1-4.5,43.3c0.7,3.1,2.4,9.1,4.3,9.1c1.3,0,5.9-4.1,10-7.9
	c-11.8,14.8-22.2,30.7-31.2,47.4c1.5-6.4,2.3-13.3,2.4-20c0-12.3-1.4-20.2-6.7-36.6l-7.2-22.4L77.5,116
	c-15.2,46.1-15.7,60.9-2.8,83.3l4.4,7.7l3.3-4c-5.8,13.7-10.6,27.9-14.5,42.3c-0.2-1.9-0.6-3.8-1-5.6c-2.9-12.4-10.8-31.8-14.9-36.5
	c-1.5-1.7-5.8-8.2-9.5-14.6c-4.9-8.3-5.8-9.8-6.9-9.5c-0.9,0.2-0.9,1.5-0.9,4.6c0,3.5-0.7,16.5-1.6,29c-2.5,36.8,3.8,58.7,19.9,68.7
	c3.2,2,5.3,3.2,6.8,3.5c-2,14.8-3.1,29.8-3.1,44.8c0,0.2,0,0.3,0,0.5c-7-15-24-40.2-31.3-45.3c-2.7-1.9-8-6.2-12-9.5
	c-4.8-4.1-5.9-4.5-6.6-4.1c-0.6,0.4-0.4,1.2,0,2.4c0.8,2.1,2.7,12.1,4.4,22.3c5.9,36.4,16.2,57.2,34.5,69.6
	c5.3,3.6,11.9,7.3,13.8,7.4c1.9,14.8,4.9,29.3,8.7,43.5c-5.6-8.1-12.1-15-18.2-18.8c-3.9-2.4-12.2-8-18.6-12.6
	c-6.4-4.6-15.8-10.8-21-13.8L0,365.1l12.6,26c6.5,13.5,15,29.4,18.9,35.3c8.6,13.3,22.9,24.8,37.3,30c7.1,2.6,10.9,3.9,13.1,3.9
	c0.8,0,1.4-0.2,1.9-0.5c6.6,15.1,14.3,29.7,23.1,43.6c-2.2-2-4.2-3.8-6.1-5.1c-12.6-9.3-34.9-19.8-47.8-22.4
	c-6.1-1.2-14.5-3.5-18.6-5.2c-7-2.7-8.6-3.1-9.2-2.3c-0.6,0.8,0.3,2.1,4.5,6.8c3.3,3.6,9.9,12,14.7,18.6c9,12.3,29.6,30.5,41.6,36.9
	c3.7,2,12.2,4.8,19,6.3c5.5,1.2,11.3,2,14.5,2c0.8,0,1.4,0,1.8-0.1c2.2-0.5,5.5-0.9,7.4-0.9c1.3,0,2.4-0.1,2.8-0.8c0,0,0,0,0-0.1
	c4.3,5.2,8.8,10.2,13.5,15.1c9,9.5,18.6,18.2,28.5,26.3c-1.9-1.1-3.7-2.1-5.5-3c-7-3.5-14.3-7.2-16-8.1c-6.7-3.5-78.3-11.4-81.5-9
	l-0.2,0.2l0,0.3c0,1,13.6,10.7,21.7,16.5c21.8,15.5,28,18.6,50.8,25.9c6.2,2,13.8,2.9,21.4,2.9c9.3,0,18.6-1.4,25.1-4.2l7.9-3.4
	l-2.9-2.6c17.4,11.8,35.7,21.6,54.9,29.4c-17.6-3.8-39.3-3.5-61.3,0.9c-10.6,2.2-25.8,5.1-33.8,6.5l-14.6,2.5l-0.1,1l8.6,2.5
	c4.8,1.4,17.6,5.2,28.5,8.6c13.8,4.3,28,6.4,41.1,6.4c19.9,0,37.5-4.8,47.7-13.8l7-6.2l-0.9-0.4c13.8,4.3,27.9,7.6,42.3,9.8
	c-5.7,1.3-11.3,3-16,4.8c-5.4,2.1-23.1,10.7-38.2,18.2c-30.7,15.3-30.7,16.1-30.7,16.5l0,0.3l0.2,0.2c0.3,0.3,2.3,0.4,5.2,0.4
	c11.3,0,37.6-1.8,46-3.1c17.6-2.6,40.4-10.4,49.8-17c3.9-2.7,10.2-8.6,13.9-13.1l3.3-4c3.4,0.1,6.9,0.2,10.3,0.2c0.7,0,1.3,0,2,0
	v-11.2C353.7,633.3,347.5,633.1,341.3,632.8z"/>
</svg>
