<?xml version="1.0" encoding="utf-8"?>
<!-- Generator: Adobe Illustrator 21.1.0, SVG Export Plug-In . SVG Version: 6.00 Build 0)  -->
<svg version="1.1" id="Layer_1" xmlns="http://www.w3.org/2000/svg" xmlns:xlink="http://www.w3.org/1999/xlink" x="0px" y="0px"
	 viewBox="0 0 355.3 682.4" style="enable-background:new 0 0 355.3 682.4;" xml:space="preserve">
<style type="text/css">
	.st0{fill:#FFFFFF;}
</style>
<g>
	<title>Layer 1</title>
	<g id="layer3">
	</g>
</g>
<g>
	<path class="st0" d="M211.2,632.4c-30.7-6.7-63.2-11.8-75.4-11.8c-13.4,0-39.4,5.5-47.2,10c-0.6,0.4-0.9,0.9-0.9,1.6
		c0.3,3.6,12.2,11.3,24.5,15.8c7.8,2.9,16.1,4,29.7,4.1c0.4,0,0.8,0,1.2,0c15.4,0,21.9-1.3,46.2-8.6c21.3-6.5,25.1-7.9,25-9.4
		C214.1,633.2,213.1,632.8,211.2,632.4z"/>
	<path class="st0" d="M217.1,50.5l-8.6-10.1l0.7,27.9c0.6,23.8,1.3,27.8,6.2,38.6c3.2,7.1,9.4,15.7,15,21c3.3,3.1,9.9,9.1,11.2,9.1
		l0,0c0.4,0,0.9-0.2,1.2-0.6c2.9-3.1,5.1-19.1,4.1-30C245.4,88,239.2,76.5,217.1,50.5z"/>
	<path class="st0" d="M275.5,103.1L275.5,103.1c-1.4,0-3.9,4.7-7.4,13.9c-5.5,14.5-6.2,18.9-6.3,38.9c-0.1,20.8,0.3,23.4,5.6,33.8
		c3.2,6.2,6.7,12.5,7.9,14c0.6,0.8,1.4,1.6,2.4,1.6l0,0c1.2,0,2.4-1.2,4-3.2c5.2-6.6,11.7-26,11.7-34.6c0-9.7-8.4-40.7-17.1-63.7
		C276.1,103.1,275.7,103.1,275.5,103.1z"/>
	<path class="st0" d="M242.6,561.6c-27,2.3-45.5,8.1-61.9,19.2c-11.6,7.9-16,11.9-16.1,15c-0.1,1.1,0.4,2.1,1.5,3
		c1.6,1.4,6.9,3.3,11.7,4.3c5.4,1.1,10.5,1.6,15.6,1.6c11.9,0,23.9-3,39.6-9.4c9.6-3.9,50.7-30.7,53-34.5c0.3-0.4,0.1-0.8,0-0.9
		C285.2,558.5,278.5,558.5,242.6,561.6z"/>
	<path class="st0" d="M18.9,653.2C30.1,664,34,666.3,48.6,670.9c24.4,7.7,26.4,8,52.6,9.6c13.1,0.8,24.9,1.6,26.3,1.8
		c0.3,0,0.5,0.1,0.8,0.1c0.7,0,1.5-0.1,1.9-0.5c0.3-0.2,0.3-0.5,0.3-0.7c0-2-19.2-11.2-24.2-12.7c-2.7-0.8-8-3.6-11.9-6.3
		c-12.2-8.4-33.5-16.6-52-21c74.2-11.5,139.7-51.5,185.9-109c-0.9,1.8-1.5,3.2-1.5,4.1c0,1.4,4.5,2.2,5.9,2.4
		c1.2,0.2,2.7,0.3,4.2,0.3c11.5,0,30.5-5,38.7-10.6c24.5-16.8,30.9-22.9,42.5-40.6c3.7-5.7,9.1-11.9,11.9-13.8
		c4.5-3,4.7-4.1,4.4-4.8c-0.2-0.5-0.8-1.7-10.1,1.4c-4.8,1.6-13.5,4-19.5,5.2c-16.2,3.4-43,17.9-56.2,30.4c-1.6,1.5-3.2,3.2-4.8,4.9
		c11.2-16.5,20.9-34.2,28.9-52.9c0.1,0.6,0.4,1.3,1,1.7c0.5,0.3,1.1,0.5,2,0.5c2.2,0,6-1.1,12.7-3.6c14.3-5.4,27.7-15.3,35.8-26.6
		c6.2-8.6,32.2-59.4,31-61.9c-0.1-0.2-0.3-0.3-0.5-0.3l0,0c-1.7,0-28.8,17.4-42.4,26.8c-12.2,8.4-20.5,16.9-26.8,28
		c4.8-16.3,8.4-33.1,10.6-50.4c0.1,0,0.1,0.1,0.2,0.1c0.4,0.3,0.9,0.4,1.5,0.4c2.4,0,6.2-2.2,13.3-6.5
		c18.2-11.1,29.7-33.1,35.1-67.3c1.5-9.7,3.7-19.9,4.7-22.8c0.8-2,1.3-4.6,0.6-5.5c-0.2-0.3-0.5-0.4-0.8-0.4
		c-3.4,0-33.6,31.9-40.3,41.8c-5.4,8-9.2,15.8-11.8,24.5c0-2.2,0.1-4.5,0.1-6.7c0-15.7-1.1-31.4-3.4-46.8c0.9,1.2,1.9,2.5,2.7,2.5
		c4.2,0,14.7-9.1,18.3-15.9c8.6-16,10.8-35.8,7.8-70.6l-1.8-21.3l-9.5,15c-4.8,7.6-11.6,19.7-15.1,27c-6.1,12.5-6.5,14.7-6.5,34.8
		c0,2.2,0,4.3,0.1,6.2c-6.7-30.9-17.7-60.7-33-88.2c-19.1-34.5-44.4-65-74.3-89.6c0.8,0.2,1.5,0.4,2,0.4c0.2,0,0.4,0,0.5-0.1
		c0.5-0.1,1-0.6,1.4-1.3c2.2-3.9,2.3-16,0.2-23c-3.2-10.9-20.7-30.6-36.7-41.2C136.6,8.1,136,8.8,135.7,9
		c-1.6,1.6,6.1,27.7,9.2,34.9c2.5,5.7,8.6,14,15.3,21.3c-2.6-1.8-5.3-3.5-8-5.2l-0.1-0.1c-5.2-2.5-15.3-8.2-25.1-13.7
		c-0.2-0.1-0.5-0.3-0.7-0.4c0-0.3,0-0.6,0-1c0-14.6-14.8-30-34.4-35.6c-7-2-17-5-22.3-6.7c-3-1-10-3.1-10.8-2.3
		c-0.1,0.1-0.2,0.3-0.2,0.6C59,4.2,80,30.5,87.3,36.4c4.4,3.6,11.9,7.9,16.8,9.7c4.1,1.5,9.6,2.7,13.5,3.2
		c6.8,4.8,15.3,10.7,25.8,17.8c-7.7-1.6-16.1-2.2-23.3-1.4C107.6,67,78.8,75.6,75.4,79c-0.2,0.2-0.3,0.5-0.2,0.8
		c0.6,1.8,12.9,3,15.4,3.2c9.1,0.8,21.8,2.3,28.4,3.2c5,0.7,12.4,1,19.8,1c11.9,0,24.1-0.8,27.6-2.2c0.6-0.2,1.2-0.5,1.6-0.8
		c8,6,15.6,12.4,22.9,19.1c-11.2-4.2-24.3-6-40.5-6c-18,0-20.7,1.5-20.9,2.9c-0.2,1.2,1.5,2.5,5.8,4c4.1,1.5,15.9,6.9,26.3,11.9
		c10.4,5.1,24.3,10.4,30.9,11.8c6.6,1.4,16.8,2.6,22.8,2.7h1.6c2.4,2.9,4.8,5.8,7.1,8.8c4.7,6,9.1,12.2,13.3,18.5
		c-5.7-4.1-12.2-7.8-19-10.7c-12.9-5.5-39.7-13.2-42-10.8l-0.2,0.2v0.2c0.1,1.4,12.4,11.5,13.8,12.7c7.9,6.4,19.2,15.8,25.2,20.9
		c11.1,9.3,32,22.1,39.1,24c1.5,0.4,2.8,0.7,3.9,0.9c5.3,11.2,9.9,22.8,13.8,34.7c-1.6-1.9-3.4-3.9-5.4-6.1
		c-10-10.9-17.1-16.2-32.9-24.6c-3.1-1.7-18.9-10-20.4-9.1c-0.2,0.1-0.3,0.3-0.3,0.5c0,1.4,4,6.2,6.7,9.1c7.2,7.8,17.2,22.5,23,34.1
		c4.3,8.5,21.3,25.9,33,33.9c3.2,2.2,5.4,3.6,7,4.3c2.9,15.5,4.6,31.3,5.2,47.1c-1-4-2.1-7.9-3.4-11.4c-4.6-12.5-7.7-17-20.4-29.7
		c-8.3-8.2-17.2-17.2-19.9-20l-4.9-5.1l-0.9,0.5l1.4,5.1c14.3,50.3,23.1,70.5,39.2,90.1c4.5,5.5,6.5,7.8,7.9,8.3
		c-0.5,5.5-1.1,10.9-1.8,16.4c-1.2,9.3-2.9,18.4-5,27.5c-0.4-8.2-1.9-16.4-4.4-23.6c-3.3-9.3-26.2-49.1-29.4-49.8
		c-0.2-0.1-0.5,0-0.6,0.2c-1.7,1.9,3.5,69.6,5.1,76.7c2.6,11,10.5,28.5,15.3,34c0.8,0.9,1.4,1.6,2,2.2
		c-5.7,15.1-12.6,29.6-20.5,43.6c2.2-12.8,2.5-27.6,0.1-41.4c-3.3-19-9.1-39.3-12.9-39.3h-0.1c-1.4,0.1-2,2.3-2,7.2
		c0,3-2.7,16.4-6,29.8c-9.4,38.4-9.7,52-1.6,73l1.2,3.2c-7.5,10-15.5,19.5-24.1,28.4c4.1-12.5,6.2-35.9,4.7-54.4l-1.5-18.9
		l-9.5,18.3c-4.8,9.2-10.7,19.6-13.2,23.1c-10.6,15.2-14,26-15,48.2l-0.7,15c-3.3,2.5-6.7,5-10.2,7.3c-7,4.9-14.3,9.5-21.8,13.7
		c10.2-13.8,17.9-32.9,21.1-53.7l1.8-11.9l-13.2,12.6c-37.8,36.1-48.1,50.2-50.5,68.2c-0.2,1.5-0.3,2.6-0.4,3.7
		c-11,4-22.3,7.3-33.8,9.9c12.2-8,30.8-32.4,33.8-44.7l1.5-6.2l-10.8,5.3c-5.4,2.7-15.5,6.7-22.5,9.1c-7.1,2.4-16.2,6.6-20.3,9.4
		c-9.5,6.4-23.7,24.6-23.7,30.3c0,1.1,0.1,2.2,0.8,2.9c-6.3,0.5-12.6,0.7-19,0.8v11.2c3.2,0,6.4-0.1,9.6-0.2L18.9,653.2z"/>
</g>
</svg>
