<?xml version="1.0" encoding="utf-8"?>
<!-- Generator: Adobe Illustrator 18.1.0, SVG Export Plug-In . SVG Version: 6.00 Build 0)  -->
<svg version="1.1" id="Layer_1" xmlns="http://www.w3.org/2000/svg" xmlns:xlink="http://www.w3.org/1999/xlink" x="0px" y="0px"
	 viewBox="4.3 0 691.3 695.7" enable-background="new 4.3 0 691.3 695.7" xml:space="preserve">
<g>
	<path d="M659.9,0h-620C20.2,0,4.3,16,4.3,35.6V660c0,19.8,16,35.7,35.6,35.7h620c19.7,0,35.6-15.9,35.6-35.5V35.6
		C695.6,15.9,679.5,0,659.9,0z M446.3,356c-21.3,0-42.3,0-63.6,0c0,75.8,0,150.8,0,226.3c-31.6,0-62.7,0-94.3,0
		c0-75.3,0-150.6,0-226.1c-15,0-29.6,0-44.5,0c0-26.9,0-53,0-79.9c14.5,0,29.2,0,44.5,0c0-2.7,0-4.7,0-6.7
		c0.2-18.8-0.6-37.6,0.9-56.1c2.3-30.3,14.4-55.8,41.9-71.8c14-8.3,29.8-11.6,45.8-12c24.6-0.5,49.2,0,73.8,0c0.3-0.2,1.1,0,2.2,0.2
		c0,25.8,0,51.4,0,77.4c-6.1,0-11.8,0-17.6,0c-10.8,0-21.4,0-32.3,0c-11.8,0.2-19.6,6.3-20.1,17.9c-0.6,16.8-0.2,33.5-0.2,50.9
		c23.8,0,47.5,0,71.7,0C451.8,302.9,449.1,329.1,446.3,356z"/>
</g>
</svg>
