<?xml version="1.0" encoding="utf-8"?>
<!-- Generator: Adobe Illustrator 18.1.0, SVG Export Plug-In . SVG Version: 6.00 Build 0)  -->
<svg version="1.1" id="Layer_1" xmlns="http://www.w3.org/2000/svg" xmlns:xlink="http://www.w3.org/1999/xlink" x="0px" y="0px"
	 viewBox="4.4 0 691.3 695.6" enable-background="new 4.4 0 691.3 695.6" xml:space="preserve">
<g>
	<path d="M660.1,0h-620C20.3,0,4.4,16,4.4,35.6V660c0,19.7,16,35.6,35.6,35.6h620c19.7,0,35.6-15.9,35.6-35.5V35.6
		C695.7,15.9,679.7,0,660.1,0z M570.1,234.6c-9.9,13.6-21.4,25.5-34.7,35.7c-2.6,1.9-3.5,4.1-3.7,7.1c-0.4,19.2-1.5,38.4-6,57.2
		c-14.8,64.1-48.1,116.2-102.9,153.6c-29.8,20.1-62.6,32.5-98.3,36.5c-36.3,4.1-72.7,3.3-108.1-8c-18.4-6-35.7-13.9-52.5-23.4
		c-1.4-0.7-2.6-1.6-3.7-2.3c-0.1-0.1-0.3-0.4-1.1-1.8c45.4,3.4,86.3-7.1,123.2-35c-38.2-4.5-64.9-23-78.8-59.4
		c12.5,0.3,24.1,1.4,35.5-1.9c-19.1-5.3-35-15.4-46.8-30.8c-12-15.5-19.1-32.9-18.1-54c11.4,6,23.3,9.4,36.6,10.5
		c-37.3-31.6-44.8-69-25.6-113.5c7.5,7.3,14,13.7,20.7,20.3c42.5,41.7,93.6,63.7,152.6,68.5c0.9,0,1.8,0,2.1,0
		c0-7.3,0.1-14.3,0-21.1c-0.7-37.6,28.4-74.2,68.5-81.5c27.2-5,52.3,1.1,73.1,20.1c4.3,4.1,8.6,5.3,14,3.3
		c12.1-4.6,24.2-9.2,36.3-13.9c2.9-1.1,5.8-2.3,9.7-4.2c-6.8,19.1-18.5,33.1-33.3,44.9c14.8-0.7,28.7-6.1,43.4-9.9
		C571.6,232.4,571.1,233.6,570.1,234.6z"/>
</g>
</svg>
